<?xml version="1.0" encoding="UTF-8" standalone="no"?>
<svg
   xmlns:dc="http://purl.org/dc/elements/1.1/"
   xmlns:cc="http://creativecommons.org/ns#"
   xmlns:rdf="http://www.w3.org/1999/02/22-rdf-syntax-ns#"
   xmlns:svg="http://www.w3.org/2000/svg"
   xmlns="http://www.w3.org/2000/svg"
   xmlns:sodipodi="http://sodipodi.sourceforge.net/DTD/sodipodi-0.dtd"
   xmlns:inkscape="http://www.inkscape.org/namespaces/inkscape"
   version="1.1"
   id="Layer_1"
   x="0px"
   y="0px"
   viewBox="0 0 123.2 117.8"
   xml:space="preserve"
   sodipodi:docname="login_dbca.svg"
   width="123.2"
   height="117.8"
   inkscape:version="1.0.1 (3bc2e813f5, 2020-09-07)"><metadata
   id="metadata268"><rdf:RDF><cc:Work
       rdf:about=""><dc:format>image/svg+xml</dc:format><dc:type
         rdf:resource="http://purl.org/dc/dcmitype/StillImage" /><dc:title></dc:title></cc:Work></rdf:RDF></metadata><defs
   id="defs266" /><sodipodi:namedview
   pagecolor="#ffffff"
   bordercolor="#666666"
   borderopacity="1"
   objecttolerance="10"
   gridtolerance="10"
   guidetolerance="10"
   inkscape:pageopacity="0"
   inkscape:pageshadow="2"
   inkscape:window-width="1920"
   inkscape:window-height="1017"
   id="namedview264"
   showgrid="false"
   fit-margin-top="0"
   fit-margin-left="0"
   fit-margin-right="0"
   fit-margin-bottom="0"
   inkscape:zoom="2.3155556"
   inkscape:cx="219.1"
   inkscape:cy="57.5"
   inkscape:window-x="-8"
   inkscape:window-y="32"
   inkscape:window-maximized="1"
   inkscape:current-layer="g261" />
<style
   type="text/css"
   id="style2">
	.st0{fill:#FFFFFF;}
	.st1{fill:#FFFFFE;}
</style>
<g
   id="g261"
   style="fill:#000000"
   transform="translate(-5.9,-7.5)">
	
	
	
	
	
	
	
	
	
	
	
	
	
	
	
	
	
	
	
	
	
	
	
	
	
	
	
	
	
	
	
	
	
	
	
	
	
	
	
	
	
	
	
	
	
	
	
	
	
	
	
	<g
   id="g130"
   style="fill:#000080">
		<path
   class="st0"
   d="m 22.7,108.6 v -1.3 h 3.5 v 3.2 c -0.3,0.3 -0.8,0.6 -1.5,0.9 -0.6,0.2 -1.3,0.4 -1.9,0.4 -0.8,0 -1.6,-0.2 -2.2,-0.5 -0.6,-0.3 -1.1,-0.8 -1.4,-1.5 -0.3,-0.6 -0.5,-1.4 -0.5,-2.1 0,-0.8 0.2,-1.6 0.5,-2.2 0.3,-0.6 0.9,-1.1 1.5,-1.5 0.5,-0.3 1.1,-0.4 1.9,-0.4 1,0 1.8,0.2 2.3,0.6 0.6,0.4 0.9,1 1.1,1.7 l -1.6,0.3 c -0.1,-0.4 -0.3,-0.7 -0.6,-0.9 -0.3,-0.2 -0.7,-0.3 -1.2,-0.3 -0.7,0 -1.3,0.2 -1.7,0.7 -0.4,0.4 -0.6,1.1 -0.6,2 0,0.9 0.2,1.7 0.6,2.1 0.4,0.5 1,0.7 1.7,0.7 0.3,0 0.7,-0.1 1,-0.2 0.3,-0.1 0.6,-0.3 0.9,-0.5 v -1 h -1.8 z"
   id="path106"
   style="fill:#000080" />
		<path
   class="st0"
   d="m 27.3,107.6 c 0,-0.8 0.1,-1.5 0.4,-2 0.2,-0.4 0.4,-0.8 0.7,-1.1 0.3,-0.3 0.7,-0.6 1,-0.7 0.5,-0.2 1.1,-0.3 1.7,-0.3 1.2,0 2.1,0.4 2.8,1.1 0.7,0.7 1.1,1.7 1.1,3 0,1.3 -0.3,2.3 -1,3 -0.7,0.7 -1.6,1.1 -2.8,1.1 -1.2,0 -2.1,-0.4 -2.8,-1.1 -0.7,-0.7 -1.1,-1.7 -1.1,-3 z m 1.7,-0.1 c 0,0.9 0.2,1.6 0.6,2 0.4,0.5 0.9,0.7 1.6,0.7 0.6,0 1.2,-0.2 1.6,-0.7 0.4,-0.5 0.6,-1.2 0.6,-2.1 0,-0.9 -0.2,-1.6 -0.6,-2 -0.4,-0.4 -0.9,-0.7 -1.6,-0.7 -0.7,0 -1.2,0.2 -1.6,0.7 -0.4,0.5 -0.6,1.2 -0.6,2.1 z"
   id="path108"
   style="fill:#000080" />
		<path
   class="st0"
   d="m 38.3,111.5 -2.8,-8 h 1.7 l 2,5.9 1.9,-5.9 h 1.7 l -2.8,8 z"
   id="path110"
   style="fill:#000080" />
		<path
   class="st0"
   d="m 43.7,111.5 v -8 h 5.9 v 1.3 h -4.3 v 1.8 h 4 v 1.3 h -4 v 2.2 h 4.4 v 1.3 h -6 z"
   id="path112"
   style="fill:#000080" />
		<path
   class="st0"
   d="m 51.1,111.5 v -8 h 3.4 c 0.8,0 1.5,0.1 1.9,0.2 0.4,0.1 0.7,0.4 0.9,0.8 0.2,0.4 0.3,0.8 0.3,1.3 0,0.6 -0.2,1.1 -0.5,1.5 -0.4,0.4 -0.9,0.6 -1.6,0.7 0.3,0.2 0.6,0.4 0.9,0.7 0.2,0.2 0.5,0.7 0.9,1.3 l 1,1.6 h -1.9 l -1.2,-1.7 c -0.4,-0.6 -0.7,-1 -0.8,-1.2 -0.2,-0.2 -0.3,-0.3 -0.5,-0.3 -0.2,0 -0.4,-0.1 -0.8,-0.1 h -0.3 v 3.3 h -1.7 z m 1.6,-4.6 h 1.2 c 0.8,0 1.3,0 1.4,-0.1 0.2,-0.1 0.3,-0.2 0.5,-0.3 0.1,-0.2 0.2,-0.4 0.2,-0.6 0,-0.3 -0.1,-0.5 -0.2,-0.6 -0.1,-0.2 -0.3,-0.3 -0.6,-0.3 -0.1,0 -0.5,0 -1.2,0 h -1.3 z"
   id="path114"
   style="fill:#000080" />
		<path
   class="st0"
   d="m 59.2,111.5 v -8 h 1.6 l 3.3,5.3 v -5.3 h 1.5 v 8 H 64 l -3.2,-5.2 v 5.2 z"
   id="path116"
   style="fill:#000080" />
		<path
   class="st0"
   d="m 67.2,111.5 v -8 h 2.4 l 1.4,5.5 1.4,-5.4 h 2.4 v 8 h -1.5 v -6.3 l -1.6,6.3 h -1.5 l -1.6,-6.3 v 6.3 h -1.4 z"
   id="path118"
   style="fill:#000080" />
		<path
   class="st0"
   d="m 76.4,111.5 v -8 h 5.9 v 1.3 H 78 v 1.8 h 4 v 1.3 h -4 v 2.2 h 4.4 v 1.3 h -6 z"
   id="path120"
   style="fill:#000080" />
		<path
   class="st0"
   d="m 83.9,111.5 v -8 h 1.6 l 3.3,5.3 v -5.3 h 1.5 v 8 h -1.6 l -3.2,-5.2 v 5.2 z"
   id="path122"
   style="fill:#000080" />
		<path
   class="st0"
   d="m 93.7,111.5 v -6.6 h -2.4 v -1.3 h 6.3 v 1.3 h -2.4 v 6.6 z"
   id="path124"
   style="fill:#000080" />
		<path
   class="st0"
   d="m 101.4,107.6 c 0,-0.8 0.1,-1.5 0.4,-2 0.2,-0.4 0.4,-0.8 0.7,-1.1 0.3,-0.3 0.7,-0.6 1,-0.7 0.5,-0.2 1.1,-0.3 1.7,-0.3 1.2,0 2.1,0.4 2.8,1.1 0.7,0.7 1.1,1.7 1.1,3 0,1.3 -0.3,2.3 -1,3 -0.7,0.7 -1.6,1.1 -2.8,1.1 -1.2,0 -2.1,-0.4 -2.8,-1.1 -0.7,-0.7 -1.1,-1.7 -1.1,-3 z m 1.7,-0.1 c 0,0.9 0.2,1.6 0.6,2 0.4,0.5 0.9,0.7 1.6,0.7 0.6,0 1.2,-0.2 1.6,-0.7 0.4,-0.5 0.6,-1.2 0.6,-2.1 0,-0.9 -0.2,-1.6 -0.6,-2 -0.4,-0.4 -0.9,-0.7 -1.6,-0.7 -0.7,0 -1.2,0.2 -1.6,0.7 -0.4,0.5 -0.6,1.2 -0.6,2.1 z"
   id="path126"
   style="fill:#000080" />
		<path
   class="st0"
   d="m 110.4,111.5 v -8 h 5.5 v 1.3 H 112 v 1.9 h 3.3 V 108 H 112 v 3.4 h -1.6 z"
   id="path128"
   style="fill:#000080" />
	</g>
	<g
   id="g146"
   style="fill:#000080">
		<path
   class="st0"
   d="m 8.2,124.9 -1.9,-8 H 8 l 1.2,5.5 1.5,-5.5 h 1.9 l 1.4,5.6 1.2,-5.6 h 1.6 l -1.9,8 H 13.2 L 11.6,119 10,124.9 Z"
   id="path132"
   style="fill:#000080" />
		<path
   class="st0"
   d="m 17.6,124.9 v -8 h 5.9 v 1.3 h -4.3 v 1.8 h 4 v 1.3 h -4 v 2.2 h 4.4 v 1.3 h -6 z"
   id="path134"
   style="fill:#000080" />
		<path
   class="st0"
   d="m 24.6,122.3 1.6,-0.2 c 0.1,0.5 0.3,0.9 0.6,1.2 0.3,0.2 0.7,0.4 1.2,0.4 0.5,0 0.9,-0.1 1.2,-0.3 0.3,-0.2 0.4,-0.5 0.4,-0.8 0,-0.2 -0.1,-0.3 -0.2,-0.5 -0.1,-0.1 -0.3,-0.2 -0.6,-0.3 -0.2,-0.1 -0.6,-0.2 -1.3,-0.3 -0.9,-0.2 -1.5,-0.5 -1.8,-0.8 -0.5,-0.4 -0.7,-1 -0.7,-1.6 0,-0.4 0.1,-0.8 0.3,-1.1 0.2,-0.4 0.6,-0.6 1,-0.8 0.4,-0.2 1,-0.3 1.6,-0.3 1,0 1.8,0.2 2.3,0.7 0.5,0.5 0.8,1 0.8,1.8 l -1.6,0.1 c -0.1,-0.4 -0.2,-0.7 -0.4,-0.9 -0.2,-0.2 -0.6,-0.3 -1,-0.3 -0.5,0 -0.8,0.1 -1.1,0.3 -0.2,0.1 -0.3,0.3 -0.3,0.5 0,0.2 0.1,0.3 0.2,0.5 0.2,0.2 0.7,0.3 1.5,0.5 0.8,0.2 1.4,0.4 1.7,0.6 0.4,0.2 0.7,0.5 0.9,0.8 0.2,0.3 0.3,0.8 0.3,1.3 0,0.5 -0.1,0.9 -0.4,1.3 -0.3,0.4 -0.6,0.7 -1.1,0.9 -0.5,0.2 -1,0.3 -1.7,0.3 -1,0 -1.8,-0.2 -2.3,-0.7 -0.5,-0.5 -1,-1.4 -1.1,-2.3 z"
   id="path136"
   style="fill:#000080" />
		<path
   class="st0"
   d="m 34.2,124.9 v -6.6 H 31.8 V 117 h 6.3 v 1.3 h -2.4 v 6.6 z"
   id="path138"
   style="fill:#000080" />
		<path
   class="st0"
   d="m 39.2,124.9 v -8 h 5.9 v 1.3 h -4.3 v 1.8 h 4 v 1.3 h -4 v 2.2 h 4.4 v 1.3 h -6 z"
   id="path140"
   style="fill:#000080" />
		<path
   class="st0"
   d="m 46.6,124.9 v -8 H 50 c 0.8,0 1.5,0.1 1.9,0.2 0.4,0.1 0.7,0.4 0.9,0.8 0.2,0.4 0.3,0.8 0.3,1.3 0,0.6 -0.2,1.1 -0.5,1.5 -0.4,0.4 -0.9,0.6 -1.6,0.7 0.3,0.2 0.6,0.4 0.9,0.7 0.2,0.2 0.5,0.7 0.9,1.3 l 1,1.6 h -1.9 l -1.2,-1.7 c -0.4,-0.6 -0.7,-1 -0.8,-1.2 -0.2,-0.2 -0.3,-0.3 -0.5,-0.3 -0.2,0 -0.4,-0.1 -0.8,-0.1 h -0.3 v 3.3 h -1.7 z m 1.6,-4.6 h 1.2 c 0.8,0 1.3,0 1.4,-0.1 0.2,-0.1 0.3,-0.2 0.5,-0.3 0.1,-0.2 0.2,-0.4 0.2,-0.6 0,-0.3 -0.1,-0.5 -0.2,-0.6 -0.1,-0.2 -0.3,-0.3 -0.6,-0.3 -0.1,0 -0.5,0 -1.2,0 h -1.3 z"
   id="path142"
   style="fill:#000080" />
		<path
   class="st0"
   d="m 54.6,124.9 v -8 h 1.6 l 3.3,5.3 v -5.3 H 61 v 8 h -1.6 l -3.2,-5.2 v 5.2 z"
   id="path144"
   style="fill:#000080" />
	</g>
	<g
   id="g166"
   style="fill:#000080">
		<path
   class="st0"
   d="m 72.5,124.9 h -1.7 l -0.7,-1.8 h -3.2 l -0.7,1.8 h -1.7 l 3.1,-8 h 1.7 z m -2.9,-3.2 -1.1,-3 -1.1,3 z"
   id="path148"
   style="fill:#000080" />
		<path
   class="st0"
   d="M 73.4,116.9 H 75 v 4.3 c 0,0.7 0,1.1 0.1,1.3 0.1,0.3 0.2,0.6 0.5,0.8 0.3,0.2 0.6,0.3 1.1,0.3 0.5,0 0.8,-0.1 1,-0.3 0.2,-0.2 0.4,-0.4 0.4,-0.7 0,-0.3 0.1,-0.7 0.1,-1.4 v -4.4 h 1.6 v 4.2 c 0,1 0,1.6 -0.1,2 -0.1,0.4 -0.2,0.7 -0.5,1 -0.2,0.3 -0.5,0.5 -0.9,0.6 -0.4,0.2 -0.9,0.2 -1.5,0.2 -0.8,0 -1.3,-0.1 -1.7,-0.3 -0.4,-0.2 -0.7,-0.4 -0.9,-0.7 -0.2,-0.3 -0.4,-0.6 -0.5,-0.9 -0.1,-0.5 -0.2,-1.1 -0.2,-2 v -4 z"
   id="path150"
   style="fill:#000080" />
		<path
   class="st0"
   d="m 81,122.3 1.6,-0.2 c 0.1,0.5 0.3,0.9 0.6,1.2 0.3,0.2 0.7,0.4 1.2,0.4 0.5,0 0.9,-0.1 1.2,-0.3 0.3,-0.2 0.4,-0.5 0.4,-0.8 0,-0.2 -0.1,-0.3 -0.2,-0.5 -0.1,-0.1 -0.3,-0.2 -0.6,-0.3 -0.2,-0.1 -0.6,-0.2 -1.3,-0.3 -0.9,-0.2 -1.5,-0.5 -1.8,-0.8 -0.5,-0.4 -0.7,-1 -0.7,-1.6 0,-0.4 0.1,-0.8 0.3,-1.1 0.2,-0.4 0.6,-0.6 1,-0.8 0.4,-0.2 1,-0.3 1.6,-0.3 1,0 1.8,0.2 2.3,0.7 0.5,0.4 0.8,1 0.8,1.8 l -1.6,0.1 c -0.1,-0.4 -0.2,-0.7 -0.4,-0.9 -0.2,-0.2 -0.6,-0.3 -1,-0.3 -0.5,0 -0.8,0.1 -1.1,0.3 -0.2,0.1 -0.3,0.3 -0.3,0.5 0,0.2 0.1,0.3 0.2,0.5 0.2,0.2 0.7,0.3 1.5,0.5 0.8,0.2 1.4,0.4 1.7,0.6 0.4,0.2 0.7,0.5 0.9,0.8 0.2,0.3 0.3,0.8 0.3,1.3 0,0.5 -0.1,0.9 -0.4,1.3 -0.3,0.4 -0.6,0.7 -1.1,0.9 -0.5,0.2 -1,0.3 -1.7,0.3 -1,0 -1.8,-0.2 -2.3,-0.7 -0.5,-0.5 -1,-1.4 -1.1,-2.3 z"
   id="path152"
   style="fill:#000080" />
		<path
   class="st0"
   d="m 90.6,124.9 v -6.6 H 88.2 V 117 h 6.3 v 1.3 h -2.4 v 6.6 z"
   id="path154"
   style="fill:#000080" />
		<path
   class="st0"
   d="m 95.6,124.9 v -8 H 99 c 0.8,0 1.5,0.1 1.9,0.2 0.4,0.1 0.7,0.4 0.9,0.8 0.2,0.4 0.3,0.8 0.3,1.3 0,0.6 -0.2,1.1 -0.5,1.5 -0.4,0.4 -0.9,0.6 -1.6,0.7 0.3,0.2 0.6,0.4 0.9,0.7 0.2,0.2 0.5,0.7 0.9,1.3 l 1,1.6 h -1.9 l -1.2,-1.7 c -0.4,-0.6 -0.7,-1 -0.8,-1.2 -0.2,-0.2 -0.3,-0.3 -0.5,-0.3 -0.2,0 -0.4,-0.1 -0.8,-0.1 h -0.3 v 3.3 h -1.7 z m 1.6,-4.6 h 1.2 c 0.8,0 1.3,0 1.4,-0.1 0.2,-0.1 0.3,-0.2 0.5,-0.3 0.1,-0.2 0.2,-0.4 0.2,-0.6 0,-0.3 -0.1,-0.5 -0.2,-0.6 -0.1,-0.2 -0.3,-0.3 -0.6,-0.3 -0.1,0 -0.5,0 -1.2,0 h -1.3 z"
   id="path156"
   style="fill:#000080" />
		<path
   class="st0"
   d="M 110.8,124.9 H 109 l -0.7,-1.8 h -3.2 l -0.7,1.8 h -1.7 l 3.1,-8 h 1.7 z m -3,-3.2 -1.1,-3 -1.1,3 z"
   id="path158"
   style="fill:#000080" />
		<path
   class="st0"
   d="M 111.7,124.9 V 117 h 1.6 v 6.6 h 4 v 1.3 z"
   id="path160"
   style="fill:#000080" />
		<path
   class="st0"
   d="m 118.4,124.9 v -8 h 1.6 v 8 z"
   id="path162"
   style="fill:#000080" />
		<path
   class="st0"
   d="M 128.7,124.9 H 127 l -0.7,-1.8 h -3.2 l -0.7,1.8 h -1.7 l 3.1,-8 h 1.7 z m -3,-3.2 -1.1,-3 -1.1,3 z"
   id="path164"
   style="fill:#000080" />
	</g>
	<g
   id="g180"
   style="fill:#000000">
		<g
   id="g178"
   style="fill:#000000">
			<g
   id="XMLID_12_"
   style="fill:#000000">
				<g
   id="g168"
   style="fill:#000000">
				</g>
				<g
   id="g170"
   style="fill:#000000">
				</g>
			</g>
			<g
   id="XMLID_11_"
   style="fill:#000000">
				<g
   id="g173"
   style="fill:#000000">
				</g>
				<g
   id="g175"
   style="fill:#000000">
				</g>
			</g>
		</g>
	</g>
	<g
   id="g255"
   style="fill:#000080">
		<g
   id="XMLID_10_"
   style="fill:#000080">
			<g
   id="g250"
   style="fill:#000080">
				<path
   class="st0"
   d="m 103.8,88.3 c 0.2,1.6 1,3.1 0.5,4.4 -0.3,0 -0.1,-0.3 -0.4,-0.4 0,-2.2 -0.4,-4.1 -0.6,-6 -0.3,-0.5 -0.3,-1.4 -0.4,-2.2 -0.1,-1.8 -0.4,-3.7 -1.2,-4.9 -0.2,-0.3 -0.6,-0.5 -0.5,-0.8 0,-0.1 -0.2,-0.1 -0.2,-0.3 0,-0.2 0.2,-0.3 0.3,-0.5 0,-0.5 -0.4,-1.2 -0.4,-1.7 0.2,0.1 0.4,0.4 0.6,0.5 0.2,0 0.1,-0.2 0.3,-0.3 0.5,0.3 0.8,1 0.8,1.7 0,0.5 0.3,1 0.3,1.4 0,0.2 0,0.4 0,0.6 0,0.4 0.2,0.9 0.2,1.4 0,0.2 0.1,0.4 0.1,0.5 0.3,1.6 0.5,2.9 0.6,4.4 0,1.1 0,1.6 0,2.2 z"
   id="path182"
   style="fill:#000080" />
				<path
   class="st0"
   d="m 100,90.6 c -0.1,0.3 -0.7,0.3 -0.8,0 0,-0.2 0.6,-0.2 0.8,0 z"
   id="path184"
   style="fill:#000080" />
				<path
   class="st0"
   d="m 92.1,26 c 0,0.2 -0.4,0.3 -0.5,0.5 -0.2,0.4 -0.2,0.9 -0.3,1.3 -0.1,0.9 -0.7,1.5 -1.4,1.8 0.1,0.3 -0.2,0.5 -0.2,0.8 -0.1,0.6 0.4,1.2 0.3,1.8 -0.5,-0.5 -0.8,-1.2 -0.6,-1.9 -0.3,0 -0.3,0.9 -0.1,1.2 -0.4,0.6 0.5,0.7 0.3,1.3 -0.2,0 -0.2,-0.2 -0.4,-0.2 -0.2,-0.9 -0.5,-1.6 -0.3,-2.4 -0.2,0.3 -0.3,0.8 -0.2,1.3 0.1,0.7 0.5,1.2 0.5,1.7 -0.5,0.1 -0.4,-0.3 -0.4,-0.5 -0.1,-0.4 -0.3,-0.8 -0.4,-1.2 0,-0.7 0.3,-1.2 0.1,-1.7 -0.6,0.3 -0.3,0.7 -0.4,1.3 0.1,0.2 0.1,0.5 0,0.7 -0.3,0 -0.2,-0.2 -0.4,-0.3 0.1,-0.6 0.2,-1.1 0.3,-1.7 -0.8,0 -0.6,1.3 -0.5,1.9 -0.6,-0.2 -0.3,-1.3 -0.2,-1.9 -0.6,-0.3 -0.7,-0.6 -0.9,-1.4 -0.1,-0.4 -0.2,-0.8 -0.2,-1.1 0,-0.6 0.1,-1.1 -0.2,-1.4 -0.2,-0.3 -1.1,-0.5 -1.6,-0.1 0,0.3 -0.1,0.6 -0.2,1 -0.5,0.6 -1.2,1.1 -1.8,1.6 -0.3,0.6 -0.7,1 -1.1,1.4 -0.3,0.4 -0.5,0.8 -0.7,1.2 -0.2,0.3 -0.4,0.4 -0.6,0.6 -0.2,0.3 -0.3,0.6 -0.5,0.9 -0.2,0.5 -0.8,0.7 -0.9,1.2 0.5,0.2 1.1,0.3 1.5,0.6 0.3,0.7 0.7,1.4 0.5,2.3 -0.3,0.3 -0.5,0.6 -0.7,0.8 -0.4,0.2 -1.4,0.2 -1.8,-0.1 -0.5,0.2 -1.1,0.3 -1.6,0.1 -0.5,0.4 -1.3,0.4 -1.9,0 -0.4,0.1 -0.8,0.2 -1.3,0.1 -0.2,0 -0.3,-0.2 -0.4,-0.2 -0.2,0 -0.4,0.2 -0.6,0.2 -0.3,0.1 -0.7,0 -1,0 -0.3,-0.1 -0.5,-0.3 -0.8,-0.3 -0.3,0 -0.5,0.2 -0.7,0.2 -0.3,0.1 -0.5,-0.1 -0.8,-0.2 -0.4,-0.1 -0.4,0.1 -0.7,0.2 -0.5,0.2 -1.1,0.1 -1.5,-0.2 -0.7,0.2 -1.3,0.5 -1.9,-0.1 -0.6,0.3 -1.6,0.3 -2.1,-0.1 -0.6,0.3 -1.3,0.5 -2,0.1 -0.7,0.3 -1.7,0.5 -2.7,0.3 C 57,36.9 56,35.3 56.9,34 c 0.3,-0.4 0.8,-0.5 1.3,-0.7 0,-0.4 -0.3,-0.4 -0.5,-0.7 -0.5,-0.6 -0.9,-1.5 -1.4,-2.3 -0.5,-0.7 -1.1,-1.5 -1.5,-2.1 -0.2,-0.3 -0.2,-0.5 -0.4,-0.8 -0.4,-0.5 -1.1,-0.7 -1.3,-1.3 -0.1,-0.3 0.1,-0.6 0,-0.8 -0.1,-0.4 -0.5,-0.7 -0.9,-1 -0.8,-0.1 -1,0.3 -1.1,0.8 0.3,1.1 -0.2,2.3 -0.4,3.2 -0.1,0.5 -0.3,0.9 -0.8,1 0.1,0.9 -0.4,1.6 -0.6,2.4 -0.1,0 -0.3,0 -0.4,-0.1 0.1,-0.3 0.5,-0.7 0.7,-1.2 0.1,-0.3 0.2,-0.9 -0.2,-1.1 -0.3,0.1 -0.1,0.3 -0.2,0.6 -0.1,0.7 -0.5,1.4 -0.7,2.1 -0.2,0.2 -0.5,0.7 -0.8,0.3 0.2,-0.4 0.6,-0.7 0.8,-1.2 0,-0.2 -0.2,-0.1 0,-0.3 0.3,-0.3 0.3,-0.9 0.1,-1.4 -0.3,0.9 -0.3,2.2 -1.1,2.4 0.3,-0.7 1,-1.3 0.7,-2.3 -0.4,0.4 -0.1,1.5 -0.8,1.6 -0.1,-0.5 0.7,-0.9 0.3,-1.5 -0.2,0.5 -0.3,1.3 -0.9,1.3 0,-0.4 0.2,-0.4 0.4,-0.5 0.2,-0.5 0.4,-1.3 -0.3,-1.4 -0.7,-0.8 -0.4,-2.2 -1.1,-3 -0.2,-0.2 -0.4,-0.3 -0.5,-0.6 0.5,-0.4 1,0.4 1.5,0.3 0.5,-0.1 0.2,-1 0.4,-1.5 0.3,-0.1 0.2,0.2 0.4,0.2 0.7,-0.2 0.9,-1.5 0.7,-1.9 -0.3,0.4 0,1.1 -0.5,1.5 -0.2,0 -0.1,-0.2 -0.2,-0.2 -0.2,0.1 -0.3,0.3 -0.5,0.2 0,-0.1 -0.1,-0.1 0,-0.3 0,-0.2 0.3,-0.1 0.4,-0.2 0.1,-0.3 0.3,-0.5 0.1,-1 -0.1,-0.2 -0.4,-0.3 -0.5,-0.5 -0.6,-0.8 -0.6,-2.6 -1.5,-3 0.9,-0.3 1.3,0.8 2.1,0.6 0.3,-0.7 0.6,-1.5 1.1,-2 0.6,0 1.3,-0.3 1.9,0 0.7,0.3 0.8,1.2 1.2,1.8 -0.1,0.1 0,0.1 0,0.3 0.3,0.3 0.2,1 0.6,1.2 0.3,-0.2 0.1,-0.6 0.1,-0.9 0,-0.5 0.1,-1.1 0,-1.3 -0.1,-0.3 -0.5,-0.4 -0.7,-0.7 -0.3,-0.4 -0.3,-0.8 -0.5,-1.3 -0.8,-1.3 -1.7,-2.7 -2.9,-3.6 0,-0.2 -0.1,-0.3 0,-0.5 0.4,-0.3 0.6,-0.4 1.2,-0.3 1.5,0.2 2.1,1.6 2.3,3.2 0,0.3 0,0.6 0,0.8 0.1,0.3 0.5,0.6 0.8,0.6 0.3,-0.1 0.3,-0.5 0.4,-0.8 -0.2,-0.6 -0.7,-0.8 -0.7,-1.4 0,-0.3 0.1,-0.6 0.1,-1 -0.1,-0.9 -0.6,-2 -1.1,-2.4 -0.3,-0.3 -1.1,-0.5 -1,-1.1 0.1,-0.5 0.8,-0.3 1.2,-0.2 0.8,0.3 1.5,1.3 1.6,2.2 0,0.5 -0.2,1 -0.1,1.5 0,0.3 0.7,1.3 0.8,0.5 -0.6,-0.8 0.1,-1.7 0,-2.6 0,-0.4 -0.1,-0.8 -0.3,-1.1 -0.3,-0.6 -1.1,-1.1 -0.8,-1.9 0.5,-0.1 0.9,0.1 1.1,0.3 0.3,0.3 0.6,0.8 0.7,1.3 0.2,1.1 -0.4,1.9 -0.2,2.5 0.8,0.2 0.6,-0.5 0.7,-0.8 0.1,-0.6 0.4,-1 0.3,-1.6 -0.1,-1.1 -1.1,-1.5 -1,-2.5 0.9,-0.3 1.5,0.6 1.6,1.2 0.3,1.1 -0.5,2 0.1,2.5 0.5,-0.1 0.6,-0.6 0.7,-0.9 0.3,-1 -0.5,-2.2 0.1,-3.1 0.7,0.1 0.9,0.5 1,1 0.1,0.8 -0.5,1.4 -0.2,2.2 0.3,0.1 0.5,-0.3 0.7,-0.5 0.1,-0.5 0.3,-1 0.3,-1.6 -0.1,-0.6 -0.3,-1.1 0.4,-1.1 0,0 0,0 0,0 1.2,0.6 -0.1,1.8 0.1,2.9 0.2,0 0.4,-0.1 0.5,-0.2 0.6,-0.6 0.4,-2.1 1.5,-2.1 0.2,0.2 0.3,0.5 0.1,0.9 -0.5,0.2 -1,0.9 -0.6,1.4 0.4,0 0.7,0 1,0.2 0,0.3 -0.1,0.4 0,0.8 -1.1,0 -2.1,0.1 -3.1,0.2 -1,0.2 -2,0.6 -2.7,1.2 -0.6,0.6 -1,1.2 -1.5,2 -1.1,1.6 -1.3,3.8 -1.2,5.7 0,0.6 0.2,1.1 0.2,1.7 0.3,0.9 0.6,1.8 0.9,2.6 0.3,0.7 0.5,1.3 0.8,1.9 0.3,0.6 0.6,1.2 0.9,1.8 0.4,0.6 0.9,1.2 1.3,1.9 0.4,0.6 0.8,1.3 1.4,1.8 0.3,-0.1 0.4,-0.3 0.4,-0.5 0.2,-1.1 -0.8,-2.5 -1,-3.4 -0.6,-0.8 -0.8,-2 -1.6,-2.7 -0.5,0.2 -1,0.2 -1.3,0 -0.2,-0.2 -0.4,-0.4 -0.5,-0.5 -0.1,-0.4 0.1,-0.9 0,-1.2 -0.1,-0.4 -0.5,-0.5 -0.6,-0.9 -0.1,-0.5 0.1,-0.8 0.3,-1.2 0,-0.3 -0.2,-0.4 -0.3,-0.5 -0.2,-0.7 0.4,-1.1 0.7,-1.6 -0.2,-1 0.6,-1.6 1.4,-1.9 0.3,-0.7 0.6,-1.4 1.4,-1.4 0.2,0 0.4,0.2 0.6,0.1 0.3,-0.1 0.4,-0.4 0.5,-0.6 0.3,0 0.6,-0.2 0.9,-0.2 0.2,0 0.4,0.1 0.7,0.1 0.3,0 0.7,-0.3 1,-0.3 0.6,0 1,0.3 1.4,0.8 0.6,-0.2 1.5,-0.1 1.8,0.5 0.9,-0.2 1.5,0.4 1.7,1 0.6,-0.6 1.1,-1.6 1.2,-2.4 -0.5,-0.4 -0.9,0.4 -1.4,0.3 -0.2,-0.8 0,-1.9 0,-2.5 0.6,0.1 0.9,0.4 1.5,0.5 0,-0.7 -0.6,-1.1 -0.8,-1.8 1.3,0 2.5,-0.2 3.5,0.2 -0.1,0.5 -0.7,0.9 -0.8,1.5 0.5,0 0.9,-0.4 1.5,-0.5 0.1,0.4 0,1 -0.1,1.4 0,0.4 0.1,0.8 -0.2,1.2 -0.6,0.1 -1,-0.8 -1.5,-0.3 0,0.8 0.4,1.2 0.8,1.7 0,0.5 0.1,0.8 0.4,0.8 0.2,0 0.3,-0.3 0.4,-0.4 0.3,-0.3 0.8,-0.3 1.3,-0.3 0.2,-0.1 0.3,-0.4 0.5,-0.5 0.4,-0.3 1,-0.4 1.6,-0.2 0.3,-0.4 0.9,-0.7 1.5,-0.5 0.3,0.1 0.4,0.3 0.7,0.4 0.8,-0.5 1.7,-0.4 2.1,0.4 0.3,0 0.5,0.2 1,0.1 0.4,0.3 0.9,0.5 1,0.9 0,0.1 0,0.3 0,0.3 0.2,0.2 0.7,0.3 0.8,0.3 0.3,0.2 0.6,0.4 0.6,0.7 0.1,0.3 -0.2,0.9 0,1.2 0.3,0.4 0.7,0.6 0.6,1.3 0,0.2 -0.3,0.4 -0.3,0.6 0,0.2 0.2,0.3 0.3,0.5 0.2,0.7 -0.1,1.1 -0.5,1.5 0.1,1.1 -0.3,1.7 -1.1,1.7 -0.2,0 -0.4,-0.1 -0.6,-0.1 -0.5,0 -0.5,0.7 -0.5,1.2 -0.2,0.1 -0.3,0.3 -0.5,0.4 -0.6,1.2 -1.7,2.9 -1.9,4.3 0,0.4 0,0.9 0.3,1.1 0.7,-0.3 0.9,-1.2 1.4,-1.7 0.5,-1.2 1.5,-1.9 1.9,-3.1 0.6,-0.7 1,-1.6 1.4,-2.5 1,-1.5 1.2,-3.5 1.1,-5.4 0,-0.5 -0.2,-1 -0.2,-1.5 0,-0.3 0,-0.6 0,-0.9 C 83.2,17.3 83,16.8 82.9,16.4 82.4,15.1 81.8,14 80.9,13.1 80.3,12.7 79.6,12.5 78.8,12.2 78.4,12 78,11.9 77.7,11.8 76.9,11.5 75.8,11.4 75,11.3 c 0,-0.2 -0.1,-0.4 0,-0.6 0.4,-0.2 0.8,0 1.1,-0.3 0.1,-0.7 -0.5,-1.1 -0.5,-1.6 0,-0.5 0.5,-0.8 0.8,-0.4 0.5,0.5 -0.3,2.9 1.3,2.5 0.5,-0.4 -0.3,-0.9 -0.3,-1.5 -0.1,-0.6 0.1,-0.8 0.4,-1.3 0.5,-0.1 0.5,0.1 0.7,0.4 0,0.4 -0.2,0.9 -0.1,1.5 0.1,0.5 0.4,1.3 0.7,1.3 0.4,0 0.4,-0.4 0.5,-0.6 -0.3,-0.9 -0.8,-2 -0.2,-2.8 0.3,-0.2 0.6,0.1 0.8,0.3 -0.3,1.2 -0.6,2.5 0,3.5 0.2,0.1 0.4,0.3 0.7,0.2 0,-0.5 -0.2,-1.3 -0.1,-1.8 0,-0.1 0.2,-0.9 0.3,-1.1 0.1,-0.2 0.8,-0.5 1.1,-0.5 0.4,0.1 0.3,0.7 0.1,1 -0.1,0.2 -0.4,0.4 -0.6,0.7 -0.2,0.3 -0.4,0.8 -0.4,1.1 0,0.3 0.4,0.7 0.5,1 0.1,0.5 -0.1,1.3 0.8,1.3 0.3,-0.8 -0.3,-1.6 -0.1,-2.6 0,-0.2 0.3,-0.7 0.5,-1 0.1,-0.1 0.8,-0.5 0.9,-0.5 0.5,0 0.7,0.4 0.5,0.8 -0.1,0.3 -0.7,0.8 -1,1.4 0,0 -0.1,0.2 -0.1,0.3 0,0.1 -0.1,0.2 -0.1,0.3 -0.2,0.6 0.1,1.2 0.1,1.7 0,0.3 -0.4,0.7 -0.3,1.1 0.2,0.6 0.8,0.1 0.9,-0.2 0,-1.1 0.2,-1.8 0.5,-2.9 0.2,-0.1 0.3,-0.5 0.5,-0.7 0,0 0.2,0 0.3,-0.1 0.1,-0.1 0.1,-0.2 0.2,-0.3 0.1,0 0.2,0 0.3,-0.1 0.1,-0.1 0.1,-0.2 0.2,-0.2 0.1,-0.1 0.4,-0.1 0.5,-0.2 0.5,-0.2 0.8,-0.3 1.1,0.3 -0.8,1.1 -2.5,1.9 -2.5,3.4 -0.3,0.4 -0.1,1 -0.3,1.5 -0.2,0.5 -0.6,0.8 -0.8,1.2 0,0.2 0,0.7 0.2,1 0.9,0.1 1,-1 1.1,-1.6 0.3,-1.3 1.1,-1.9 2.2,-2.5 0.8,-0.1 1.8,-0.7 2.2,0 -0.1,0.3 -0.5,0.2 -0.8,0.3 -0.7,0.3 -0.8,0.9 -1.4,1.5 -0.4,0.3 -0.9,0.5 -1.1,0.8 -0.4,0.7 -0.3,1.6 -0.8,2.3 -0.2,0.4 -0.8,0.6 -0.9,1.1 -0.2,0.8 -0.1,1.3 0,2 0.5,-0.1 0.4,-0.7 0.8,-0.9 0,-0.5 0.3,-0.8 0.5,-1.2 0.2,-0.3 0.3,-0.6 0.5,-0.8 0.2,-0.1 0.6,-0.3 0.8,-0.3 0.1,0 0.5,0 0.8,0.1 0.5,0.1 0.9,0.3 1.2,0.5 0.4,0.4 0.3,1.2 0.8,1.5 0.5,0 0.7,-0.4 1.2,-0.5 0.3,0.5 -0.3,1 -0.5,1.6 -0.3,0.8 0,1.8 -0.8,1.8 -0.2,0.7 0.7,0.8 0.4,1.3 -0.5,-0.3 -0.5,-1 -0.9,-1.3 -0.3,0.5 0.4,0.9 0.4,1.3 -0.7,0.1 -0.5,-0.8 -0.8,-1.4 -0.4,0.2 0,0.9 0.1,1.2 0.2,0.2 0.5,0.5 0.4,0.7 -0.3,0.3 -0.5,0 -0.6,-0.4 -0.3,0 -0.3,0 -0.5,0 -0.2,-0.5 -0.3,-1.3 -0.3,-1.8 -0.9,0.2 0.1,0.7 -0.1,1.3 -0.4,-0.1 -0.4,-0.9 -0.4,-1.2 -0.1,-0.4 -0.5,-0.4 -0.7,-0.8 -0.2,-0.5 0.2,-1.1 -0.1,-1.5 -0.5,0.1 -0.6,0.6 -0.9,0.9 0,0.6 -0.3,0.9 -0.4,1.3 -0.5,0.2 -1,0.6 -0.8,1.3 0.6,-0.1 0.8,-0.5 1.2,-0.6 0.7,-0.1 1.5,0.6 1.9,1.1 0.3,0.3 0.6,0.6 0.8,0.8 0.2,0.2 0.2,0.5 0.5,0.5 0.3,0 0.5,-0.3 0.8,-0.3 0.4,0.1 0.4,0.6 0.8,0.7 0.2,-0.2 0.7,-0.9 1.4,-0.6 z m -1.4,2.3 c 0,-0.6 0.3,-1.2 0.3,-1.8 -0.3,0.1 -0.5,0.5 -0.9,0.7 -0.1,0.2 -0.3,0.5 -0.5,0.3 0.1,-0.4 0.3,-1.2 -0.1,-1.4 -0.5,0.1 -0.5,1.4 -1.2,0.8 0.1,-0.4 -0.3,-1.4 -0.8,-1.6 0,0.4 0.2,1 -0.1,1.4 -0.2,-0.2 -0.4,-0.4 -0.6,-0.5 -0.5,0.6 0.2,1.1 0.2,1.8 0,0.3 -0.2,0.6 -0.2,0.9 0.2,1 1.4,0.2 2.3,0.3 0.1,0 0.3,0.1 0.4,0.1 0.5,-0.1 1,-0.6 1.2,-1 z m -0.6,-6.9 c 0.1,-0.4 0.3,-0.7 0.2,-1 -0.4,0.1 -0.7,0.4 -0.9,0.8 -0.3,-0.5 -0.2,-1.4 -0.7,-1.8 -0.3,0.3 -0.3,1 -0.6,1.3 -0.3,-0.3 -0.4,-0.8 -0.9,-1 -0.2,0.4 -0.3,1.2 -0.4,1.8 -0.1,0.5 0.1,1 0.5,1.1 0.2,0 0.5,0 0.7,0 0.4,0 0.8,0.2 1.1,0.1 0.8,-0.2 0.8,-0.7 1,-1.3 z m -1.8,2.8 c 0,-0.4 0,-1 -0.2,-1.4 -0.1,0.6 -0.1,1.1 0.2,1.4 z M 87,18.9 c -0.1,0 -0.1,0 -0.2,0 -0.2,0.5 -1.1,0.8 -0.7,1.3 0.4,-0.2 0.8,-0.8 0.9,-1.3 z M 85.2,25 c 0,-1 -1.1,-0.4 -1.1,0.2 0,0 0.1,0 0.1,0.1 0.4,0 0.7,-0.1 1,-0.3 z m -4.1,-1 c 1.1,0.4 1.8,-1.4 0.7,-1.5 -0.4,0 -0.7,0.2 -1,0.5 -0.1,0.5 0,0.7 0.3,1 z m 0.5,-1.8 c 0.8,0 1.1,-1.7 0,-1.5 -0.4,0 -0.7,0.3 -0.8,0.5 -0.2,0.6 0.4,1 0.8,1 z m -1.2,-1.7 c 1,0.4 1.8,-0.8 1.2,-1.6 -0.5,-0.6 -1.8,-0.3 -1.6,1 0.1,0.2 0.1,0.5 0.4,0.6 z m 0.4,5.2 c 1.5,0.3 0.9,-2.4 -0.3,-1.1 0,0.4 -0.1,1.1 0.3,1.1 z M 80,24.6 c 1.1,-2.1 0.1,-4.5 -1.4,-5.4 -0.7,-0.5 -1.6,-0.8 -2.7,-0.7 -1.6,0.1 -3,0.8 -4.4,1.3 -0.2,0.4 -0.7,0.8 -0.8,1.3 0.5,-0.2 1.2,-0.3 1.8,-0.5 0.3,-0.1 0.7,-0.4 1,-0.5 0.3,-0.1 0.8,-0.1 1.1,-0.3 0.3,-0.1 0.5,-0.3 0.7,-0.3 1,-0.2 1.7,0.2 2.3,0.5 0.3,0.2 0.7,0.3 1,0.6 0.5,1.1 1,2.3 0.5,3.6 0.3,0.3 0.6,0.3 0.9,0.4 z m -0.9,-5.5 c 1.3,0.3 1.4,-1.4 0.7,-1.8 -0.4,-0.2 -1.1,0 -1.3,0.5 -0.3,0.6 0.2,1.1 0.6,1.3 z m 0.9,6 c -0.3,-0.3 -0.9,-0.5 -1.3,-0.3 0.1,0.8 -0.1,1.2 0.3,1.6 0.7,-0.1 0.7,-0.8 1,-1.3 z m -0.9,2.2 c 0.1,-0.1 0.2,-0.1 0.3,-0.3 0,-0.4 -0.3,-0.3 -0.6,-0.4 -0.3,0.4 0.1,0.6 0.3,0.7 z m -0.6,0.5 c 0.1,-0.1 0.3,-0.1 0.3,-0.3 0,-0.1 -0.2,-0.1 -0.3,-0.2 -0.8,0.5 -0.9,1.7 -1.9,2 -1.3,0.4 -1.8,-0.8 -2.4,-1.6 -0.5,-0.1 -1,0 -1.4,-0.1 -0.2,0.1 -0.4,0.3 -0.5,0.6 -0.7,0.5 -1.6,0.6 -2.4,0.3 -0.4,-0.2 -0.5,-0.8 -1.1,-0.9 -0.1,0 -0.3,0.1 -0.4,0.1 -0.2,0 -0.3,-0.2 -0.5,-0.1 -0.3,0.1 -0.3,0.4 -0.5,0.6 -0.6,0.6 -1.8,0.8 -2.7,0.4 -0.2,-0.1 -0.5,-0.4 -0.8,-0.5 -0.5,-0.1 -0.8,0.1 -1.5,0.2 -0.4,0.5 -0.8,1.1 -1.4,1.1 -0.6,0 -0.9,-0.5 -1.4,-0.5 -0.3,-0.3 -0.3,-0.7 -0.6,-0.8 -0.6,0 0,1 0.1,1.5 0.4,0.4 1.1,0.6 1.9,0.6 0.1,0 0.3,0 0.4,-0.1 0.9,0.2 1.1,-0.9 1.6,-1.1 0.2,0.5 0.8,0.3 0.8,-0.2 0.5,0 0.9,0.4 1.3,0.5 1.2,0.3 2.1,-0.2 2.9,-0.9 0.1,0.1 0.2,0.2 0.4,0.3 0.1,-0.1 0.2,-0.4 0.4,-0.3 0.5,0.7 1.4,1.2 2.5,1.1 0.8,-0.1 1.3,-0.5 1.7,-0.9 0.2,0.2 0.3,0.3 0.5,0.5 0.3,0 0.2,-0.3 0.5,-0.3 0.3,0.4 0.4,0.8 0.7,1.2 0.5,0.3 0.8,0.7 1.6,0.6 0.1,0 0.2,-0.1 0.3,-0.2 0.8,0.1 1,-0.5 1.3,-1 0.1,-0.2 0.3,-0.3 0.4,-0.4 0.1,-0.5 0.1,-1 0.2,-1.2 z m 0,-5.9 c 0.1,-0.2 -0.1,-0.5 -0.1,-0.8 -0.4,-0.4 -1,-0.7 -1.5,-1.1 -0.1,0.1 -0.2,0 -0.3,0 -0.4,-0.2 -1,-0.2 -1.5,-0.1 -0.8,0.2 -1.6,0.6 -2.4,0.9 -0.4,0.1 -0.9,0.3 -1.3,0.4 -0.4,0.1 -1,0.1 -1,0.5 0.7,0 1.6,-0.2 2.5,0 0.5,0.1 1.1,0.4 1.6,0.3 0.2,0 0.3,-0.2 0.5,-0.2 1.2,-0.3 2.5,-0.8 3.5,0.1 z M 77,27.8 c 0.7,-0.2 1.8,-0.7 1.5,-1.4 -0.1,-0.3 -1,-1.2 -1.3,-0.9 -0.1,0.6 -0.3,1.6 -0.2,2.3 z m 1,9.1 c 0,-0.1 0.1,-0.1 0.2,-0.2 -0.3,-0.9 -0.6,-1.9 -1.5,-2.2 0,0 -0.1,0 -0.1,0 -0.1,0.3 0.2,0.8 0.4,1.2 0.2,0.6 0.4,1.2 1,1.2 z M 77.4,18.3 c 0.9,0 1.2,-1.2 0.5,-1.7 -1.5,-0.4 -1.7,1.7 -0.5,1.7 z m -0.3,12.5 c -0.6,0.2 -1.4,0 -2.1,-0.4 -0.3,-0.5 -0.8,-0.9 -1.1,-1.4 -0.4,0.3 -0.7,0 -1,-0.2 -0.7,0.2 -1.2,0.7 -1.9,0.7 -0.8,0.1 -1.5,-0.5 -2.3,-0.8 -0.1,-0.1 -0.1,0.2 -0.3,0.1 -0.2,0 -0.3,-0.3 -0.5,-0.2 -0.7,0.3 -1.3,1 -2.3,0.8 -0.5,-0.1 -1,-0.5 -1.3,-0.5 -0.4,0 -0.3,0.3 -0.5,0.4 -0.3,0.2 -0.6,0 -0.9,-0.1 -0.6,1 -1.9,1.6 -3.2,1.1 0,0.5 0.1,0.9 0.3,1.2 1,-0.2 1.8,0 2.8,0.1 0.5,-0.3 1,0.1 1.3,0.1 0.3,0 0.8,-0.4 1.1,0 0.5,-0.1 0.7,-0.1 1.1,0 0.7,-0.2 1.8,0.1 2.8,-0.3 0.4,0.3 1,0.2 1.4,0 0.8,0.3 1.8,0.1 2.9,0 0.1,0 0.2,0.2 0.3,0.2 0.3,0 0.6,-0.1 1.1,-0.2 0.1,0 0.2,0.2 0.3,0.2 0.9,-0.1 1.9,0.5 2,-0.8 z m 0,2.8 c 0.2,-1.4 -0.8,-1.6 -1.8,-1.4 -0.2,-0.1 -0.2,-0.3 -0.4,-0.3 -0.3,0 -0.5,0.4 -0.8,0.4 -0.2,0 -0.4,-0.3 -0.6,-0.3 -0.3,0 -0.6,0.1 -1,0 -0.2,0 -0.3,-0.1 -0.4,-0.1 -0.2,0 -0.3,0.2 -0.5,0.2 -0.3,0 -0.5,-0.2 -0.8,-0.2 -0.3,0 -0.6,0.2 -1.1,0.1 -0.3,0 -0.4,-0.1 -0.6,-0.1 -0.1,0 -0.3,0.1 -0.4,0.1 -0.2,0 -0.4,-0.3 -0.6,-0.3 -0.3,0 -0.7,0.2 -1.1,0.3 -0.5,-0.2 -0.7,0.2 -1.3,0.1 -0.1,0 -0.1,-0.3 -0.3,-0.3 -0.3,0.1 -0.5,0.2 -0.8,0.2 -0.3,-0.3 -0.7,-0.2 -1,-0.1 -0.4,-0.1 -0.7,-0.1 -1.3,0 -0.5,-0.4 -1.3,0.1 -1.8,-0.2 -0.3,0.2 -0.5,0.1 -0.8,0.1 -0.2,0.2 -0.3,0.4 -0.5,0.5 -0.1,0.2 0,0.6 -0.1,0.8 0.4,-0.1 0.8,0.1 1.2,0 0.4,0.1 0.6,0.4 0.9,0.3 0.3,0 0.5,-0.2 0.8,-0.3 0.6,-0.1 0.8,0.2 1.2,0.2 0.5,0 1.3,-0.2 1.9,-0.2 0.4,0 0.7,0.1 1,0.2 0.5,0 0.7,-0.2 1.1,-0.2 0.4,0 0.8,0.3 1.3,0.3 0.4,0 0.8,-0.2 1.2,-0.1 0.3,0 0.5,0.2 0.8,0.2 0.5,0 1.1,-0.2 1.7,-0.2 0.5,0.4 0.9,0 1.5,0 0.4,0 0.8,0.3 1.2,0.2 0.3,0 0.5,-0.2 0.8,-0.2 0.6,0.2 0.9,0.1 1.4,0.3 z M 74.7,17 c -0.5,1.2 1.8,1.7 1.5,0 C 76,16.3 75,16.4 74.7,17 Z m 0.8,11 c 1.2,0.1 1.3,-2.2 0.3,-2.4 -0.5,-0.1 -0.7,0.4 -1.2,0.5 -0.1,-0.3 0.2,-0.7 0.3,-1 0.1,-0.8 -0.2,-1.3 -0.5,-1.8 -0.6,-0.2 -1.1,0.7 -1.2,1.2 -0.1,0.5 0.3,1.1 -0.2,1.4 -0.4,-0.8 -1.9,-1 -2.1,0.1 -0.1,0.6 0.2,1.3 0.6,1.6 0.3,-0.3 0.3,-0.9 0.9,-0.9 0.9,0.3 3.5,-0.5 3.1,1.3 z m -1.3,8.7 c 0.5,0.3 1.4,0.5 2,0.3 0,-0.6 -0.6,-1.3 -0.9,-1.8 -0.1,-0.5 -0.5,-0.8 -1.1,-0.8 -0.9,0.5 -2,-0.4 -2.8,-0.1 0.1,0.9 1,1.4 1,2.2 0.4,0.5 1.1,0.7 1.9,0.6 -0.1,-0.2 -0.2,-0.4 -0.1,-0.4 z m -1,-18 c 0.8,0.2 1.6,-0.9 0.8,-1.6 -1.2,-0.8 -1.7,1.4 -0.8,1.6 z M 73,27.3 c 0.5,0.1 1.4,0.3 1.5,-0.2 C 74,26.9 73.6,27 72.9,27 c 0,0.1 0,0.2 0.1,0.3 z m -1.1,-7.9 c 0.7,-0.2 0.7,-1.6 -0.1,-1.6 -1,0.2 -0.9,1.9 0.1,1.6 z m -0.9,0 c -0.2,0 -0.5,-0.1 -0.7,0 -0.5,0.7 -0.5,1.5 -0.8,2.2 -0.3,0.8 -0.6,1.7 -0.5,2.7 0.2,0 0.3,0.1 0.5,0.1 0.1,-1.1 0.5,-1.9 0.6,-2.9 0.5,-0.6 0.9,-1.4 0.9,-2.1 z m -0.5,-4.3 c 0.3,-0.4 0.4,-0.8 0.1,-1.3 -0.4,0 -0.8,0.1 -1,0.4 -0.1,0.1 -0.1,0.3 -0.1,0.5 0.2,0.4 0.5,0.5 1,0.4 z m -0.1,12.3 c 0.1,-0.7 0.3,-1.2 0,-1.7 -0.5,0 -0.6,0.4 -1.1,0.4 -0.1,0.3 -0.2,0.6 0,1 0.3,-0.1 0.7,0.3 1.1,0.3 z M 70.1,19.1 C 69.4,19 69.3,19.6 69,20 c 0.2,0.1 0.2,0.4 0.3,0.5 0.4,-0.4 0.7,-0.8 0.8,-1.4 z m -0.3,-0.8 c 0.1,-0.1 0.2,-0.5 0.1,-0.7 -0.3,-0.3 -0.8,0 -1,-0.4 -0.1,-0.2 0.1,-0.5 -0.2,-0.7 -0.7,-0.1 -0.4,0.6 -0.6,0.9 -0.3,0.1 -0.7,-0.1 -1,0.1 -0.1,0.2 -0.1,0.5 0,0.6 0.9,0.2 1.6,0 2.7,0.2 z m -0.7,-4.7 c 0.1,-0.3 0.5,-0.5 0.5,-0.8 0,-0.6 -1.3,-0.5 -1.8,-0.4 0,0.5 0.3,0.7 0.4,1.1 0.3,0 0.6,0.1 0.9,0.1 z m 0.2,5.2 c 0.3,0 0.3,-0.3 0.3,-0.4 0,0 -0.1,0 -0.2,0 -0.2,0.2 -0.1,0.2 -0.1,0.4 z m 0.2,-1.6 c 0.1,-0.4 -0.4,-0.5 -0.4,-0.1 0.1,0.1 0.2,0.1 0.4,0.1 z M 68,16.1 c 0.4,0.4 1.5,0.1 1,-0.7 -0.2,-0.1 -0.5,-0.1 -0.8,0 -0.1,0.3 -0.1,0.5 -0.2,0.7 z M 69,27 c 0.2,-0.4 -0.1,-0.7 -0.3,-0.9 0.3,-0.1 0.6,-0.8 0.8,-1.3 -0.3,-0.2 -1,-0.3 -1.5,-0.2 -0.1,0 -0.3,0 -0.5,0.2 0.2,0.5 0.6,0.8 0.8,1.4 -0.1,0.2 -0.2,0.5 -0.3,0.7 0.1,0.3 0.7,0.4 1,0.1 z M 68.7,19.2 C 69,19 69,18.7 69,18.4 c -0.3,0 -0.4,0 -0.6,0 -0.1,0.3 -0.1,0.5 0,0.8 0.1,-0.1 0.2,0 0.3,0 z m 0.3,0.2 c -0.3,0.1 -0.6,0 -0.8,0 0.1,0.2 0.2,0.4 0.3,0.5 0.3,-0.1 0.5,-0.2 0.5,-0.5 z m -0.2,2.5 c 0.2,-0.1 0.1,-0.3 0.1,-0.7 -0.3,-0.1 -0.7,-0.1 -1,-0.1 -0.2,0.2 -0.2,0.5 0,0.7 0.4,-0.1 0.7,0.1 0.9,0.1 z m 0,2.3 c 0.2,-0.3 0,-0.7 -0.3,-0.9 -0.8,-0.2 -1,0.5 -0.6,1 0.3,0 0.8,0 0.9,-0.1 z m -0.3,-9 c 0.7,0.1 0.8,-1.4 0,-1.2 -0.6,0.1 -0.5,1.1 0,1.2 z m 0.2,5.7 C 69,20.3 67.9,20.1 68,20.8 c 0.2,0.1 0.5,0 0.7,0.1 z m -0.7,2 c 0.5,0.2 0.9,0 0.9,-0.5 -0.3,-0.1 -0.7,-0.3 -1.1,0 0,0.1 0.1,0.4 0.2,0.5 z m 0.1,14 C 68.4,36.5 68,36.1 67.8,35.8 67.1,34.7 66.9,33.6 65.3,34.3 64.8,34 64,33.8 63.7,34.4 c 0.4,1.1 0.7,2.7 2.4,2.6 0.2,0 0.5,-0.2 0.7,-0.2 0.4,0 0.8,0.2 1.3,0.1 z M 68,18.9 c 0.1,-0.2 0,-0.4 0,-0.5 -0.2,0 -0.3,0.1 -0.4,0 -0.2,0.3 0,0.6 0.4,0.5 z m 0,-2.1 c -0.3,-0.2 -0.8,0.2 -0.4,0.4 0.3,0 0.4,-0.1 0.4,-0.4 z M 67.9,27 c 0,-0.3 0,-0.5 0.1,-0.6 -0.3,-0.3 -0.6,-0.5 -1,-0.7 -0.3,0.5 -0.3,1.1 -0.2,1.6 0.4,0 0.7,-0.2 1.1,-0.3 z m -0.2,-6.5 c 0,-0.3 0.3,-0.3 0.4,-0.5 -0.3,-0.3 -0.5,-0.9 -1.1,-0.8 0.2,0.4 0.4,0.9 0.7,1.3 z m -1,-5.4 c 0.7,0.4 1.2,-0.3 0.8,-0.9 -0.6,-0.6 -1.1,0.2 -0.8,0.9 z m 0.9,9.3 c 0,-1.9 0,-4 -1,-5.2 -0.2,0 -0.5,0 -0.5,0.2 0.1,0.9 0.6,1.5 0.5,2.3 0.5,0.8 0.2,2 0.3,2.7 0.3,0.1 0.3,-0.1 0.7,0 z m -4,-2.7 c 1.1,-0.2 1.9,0.1 2.9,0 C 66.3,21.3 65.7,21.2 65.3,21 65,20.8 64.7,20.6 64.3,20.5 64,20.3 63.6,20.2 63.2,20.1 63,20 62.9,19.9 62.7,19.8 c -0.5,-0.2 -1.1,-0.2 -1.6,-0.2 -0.9,0 -3,0.8 -2.7,1.9 0.9,-0.4 1.8,-0.5 2.6,-0.2 0.2,0.1 0.4,0.1 0.5,0.2 0.3,0.1 0.8,0.5 1.1,0.5 0.3,-0.1 0.7,-0.2 1,-0.3 z m 1.1,-1.4 c 0.4,0.2 0.8,0.5 1.3,0.5 0,-0.5 -0.2,-0.6 -0.3,-1 -0.4,-0.4 -0.9,-0.7 -1.5,-0.9 -1.4,-1 -3,-1 -4.8,-0.6 -0.4,0.3 -0.8,0.6 -1.4,0.7 -0.3,0.3 -0.5,0.6 -0.9,0.9 -1,1.6 -0.8,3.6 0.1,5.2 0.4,-0.1 0.7,-0.1 0.9,-0.4 -0.2,-0.8 -0.5,-1.4 -0.5,-2.1 0,-0.5 0.1,-1.2 0.3,-1.6 0.4,-0.8 1.3,-1.4 2.3,-1.7 1.4,-0.4 2.6,0.2 3.9,0.6 0.2,0.2 0.4,0.3 0.6,0.4 z m 1,7.2 C 66,27 66.2,26.3 66.2,25.7 65.8,25.4 65.4,24.8 64.7,25 c -0.3,0.2 -0.5,0.6 -0.7,0.7 0,-0.5 0,-0.9 -0.1,-1.3 -0.3,-0.5 -0.7,-1.4 -1.3,-1.1 -0.4,0.2 -0.5,1.4 -0.4,1.8 0.1,0.3 0.4,0.7 0.1,0.9 -0.3,-0.5 -1.1,-0.5 -1.5,-0.1 -0.5,0.6 0,1.6 0.5,1.9 0.3,-0.3 0.2,-0.9 0.7,-0.9 0.1,0.2 0.4,0.2 0.6,0.3 0.3,-0.3 0.6,-0.1 1,-0.3 0.4,-0.2 0.5,-0.7 1,-0.6 0.1,0 0.2,0.1 0.4,0.2 0.2,0.4 0.4,0.8 0.7,1 z m -0.5,-8.7 c 1,0.1 1.1,-1.6 -0.1,-1.3 -0.9,0.2 -0.6,1.2 0.1,1.3 z m -1.1,-0.9 c 0.6,-0.7 -0.7,-1.5 -1.2,-0.7 -0.2,0.7 0.8,1.1 1.2,0.7 z m -1.5,9.6 c 0.1,0.5 1.7,0.4 1.5,-0.3 -0.4,0 -1.1,0 -1.5,0.3 z M 62.5,17.3 c 0.4,-0.9 -1.1,-1.6 -1.6,-0.7 -0.1,0.3 0,0.4 0.1,0.8 0.5,0.5 1.3,0.4 1.5,-0.1 z m 0,19.3 c 0.1,-0.1 0.1,-0.1 0.1,-0.4 -0.3,-0.8 -0.6,-1.6 -1.3,-2.1 -0.5,0.5 0.3,0.9 0.3,1.5 0.2,0.2 0.5,0.4 0.4,0.7 0.2,0 0.2,0.3 0.5,0.3 z M 60.4,17.7 c 0.8,-1.1 -1,-2.2 -1.4,-1.1 -0.1,0.2 0,0.6 0,0.8 0.1,0.4 0.9,0.6 1.4,0.3 z M 60.5,28 c 0.1,-0.7 -0.3,-1.3 -0.5,-2 -0.2,-0.1 -0.8,0.8 -0.9,1 -0.2,0.5 0.8,0.9 1.4,1 z m -0.2,8.8 c 0,-0.3 -0.2,-0.4 -0.3,-0.6 -0.3,-0.6 -0.5,-1.8 -1.2,-2 -0.4,-0.1 -0.4,0.1 -0.7,0.2 -0.2,0.1 -0.4,0 -0.5,0.1 -0.8,0.5 -0.5,2.2 0.5,2.4 0.2,0 0.1,-0.3 0.4,-0.3 0.3,0.5 1.2,0.5 1.8,0.2 z m -1.9,-9 c 0.5,0.2 0.7,-0.2 0.6,-0.6 -0.2,-0.2 -0.4,0.1 -0.6,0.1 -0.1,0.2 0,0.4 0,0.5 z M 59,26.1 c 0,-0.4 0.1,-0.8 -0.1,-1.1 -0.5,-0.1 -1,0.3 -1.4,0.4 0,0.5 0.4,1.5 0.8,1.7 0.8,0.3 0.7,-0.6 0.7,-1 z m -1.7,-7.5 c 0.5,0.4 1.7,-0.3 1.4,-1.1 -0.5,-0.6 -1.7,-0.6 -1.8,0.3 0,0.2 0.2,0.6 0.4,0.8 z m -0.8,1.5 c 0.5,-0.2 1,-1.2 0.4,-1.6 -0.2,-0.1 -0.9,-0.2 -1,-0.1 -0.1,0 -0.4,0.3 -0.4,0.4 -0.3,0.6 0.4,1.3 1,1.3 z m 0.2,4.7 c 0,-0.3 -0.3,-0.8 -0.5,-0.9 -0.1,0 -0.2,0 -0.3,0 -0.4,0.1 -0.7,0.5 -0.6,0.9 0.1,0.7 1.4,0.8 1.4,0 z m -0.6,-1.5 c 0.4,-0.8 -0.4,-2 -1.2,-1.3 -0.7,0.9 0.4,2 1.2,1.3 z m -0.4,-1.6 c 0.8,0 0.9,-1.8 -0.3,-1.6 -1.1,0.2 -0.7,1.7 0.3,1.6 z m -2.6,2.5 c 0.1,-0.3 0,-0.9 -0.2,-1.2 -0.1,-0.2 -0.3,-0.1 -0.5,-0.3 -0.3,-0.2 -0.5,-0.5 -0.6,-0.8 -0.1,-0.2 0,-0.5 -0.1,-0.9 -0.1,-0.2 -0.3,-0.5 -0.4,-0.7 -0.1,-0.2 -0.2,-0.6 -0.5,-0.6 -0.6,0.4 -0.1,1.1 -0.2,1.6 0,0.4 -0.4,0.8 -0.6,1 -0.2,0.4 -0.2,0.8 -0.4,1.2 -0.1,0.1 -0.3,0.3 -0.3,0.5 -0.1,0 -0.1,0.1 -0.3,0.1 0,0 -0.1,-0.1 -0.2,-0.2 0.5,-0.2 0.6,-0.9 0.6,-1.4 -0.1,0 -0.2,-0.1 -0.3,0 0,0.3 0.2,0.9 -0.2,1.1 -0.3,-0.2 0.2,-0.8 -0.2,-1 0,0.6 -0.2,1.8 -0.7,2.3 0,0.3 0.3,0.6 0.5,0.5 0.3,-0.5 0.6,-1 1.2,-1.2 0.3,-0.6 0.9,-1 1.6,-1 0.9,0 1.2,0.8 1.8,1 z M 51.8,24 c 0.2,0.2 0.5,0.3 0.8,0.2 -0.1,-0.3 -0.9,-0.8 -0.8,-0.2 z m -0.6,-4.7 c 0.1,-0.5 -0.1,-1.3 -0.7,-1.1 0.2,0.3 0.3,0.9 0.7,1.1 z M 50.4,28 c 0.2,-0.8 0.6,-2.2 0.1,-2.9 -0.2,0.4 -0.4,0.9 -0.8,1.1 -0.1,-0.6 -0.1,-0.9 0,-1.5 -0.1,0 -0.1,0 -0.1,0 -0.4,0.4 -0.8,0.9 -1,1.5 -0.4,-0.2 -0.6,-0.7 -0.9,-0.9 -0.3,0.5 -0.1,1.1 -0.3,1.5 -0.4,-0.1 -0.6,-0.4 -1,-0.5 0,0.4 0.4,0.8 0.5,1.3 0.1,0.4 0,0.9 0.3,1.2 0.9,0 2.1,-0.2 2.8,0 0.3,-0.2 0.3,-0.4 0.4,-0.8 z m -0.7,-6.2 c 0.8,-0.3 0.8,-1 0.5,-1.9 C 50,19.4 50,19 49.7,18.8 c -0.4,0.5 -0.4,1.1 -0.7,1.7 -0.1,-0.4 -0.3,-0.8 -0.4,-1.3 -0.5,0.2 -0.5,0.8 -0.8,1.2 -0.3,-0.2 -0.6,-0.4 -1,-0.5 0,0.5 0.4,0.8 0.5,1.2 0.1,0.3 0,0.7 0.4,0.9 0.7,-0.1 1.5,-0.2 2,-0.2 z m -1.8,1.5 c 0.2,0 0.3,-0.4 0.2,-0.6 0,0 -0.1,0 -0.1,0 -0.1,0.2 -0.1,0.4 -0.1,0.6 z m -0.1,0.5 c 0.2,0 0.3,-0.4 0.1,-0.5 -0.1,0.2 -0.2,0.4 -0.1,0.5 z"
   id="path186"
   style="fill:#000080" />
				<path
   class="st0"
   d="m 82,23.1 c 0.2,0.3 -0.3,0.5 -0.5,0.7 -0.1,-0.1 -0.3,-0.2 -0.3,-0.3 0.1,-0.1 0,-0.3 0.2,-0.3 0.1,0 0.1,0.2 0.2,0.2 0.2,-0.1 0.1,-0.4 0.4,-0.3 z"
   id="path188"
   style="fill:#000080" />
				<path
   class="st0"
   d="m 81.9,21.3 c 0.1,0 0.1,0.1 0.2,0.1 0,0.3 -0.3,0.5 -0.6,0.5 -0.5,-0.1 -0.2,-1.1 0,-0.3 0.2,0 0.2,-0.3 0.4,-0.3 z"
   id="path190"
   style="fill:#000080" />
				<path
   class="st0"
   d="m 81.4,25 c 0.1,0.6 -0.9,0.8 -0.7,0.1 0.2,0 0.2,0 0.3,0.1 0.1,-0.1 0.2,-0.3 0.4,-0.2 z"
   id="path192"
   style="fill:#000080" />
				<path
   class="st0"
   d="m 81.1,19.5 c 0.2,0 0.2,0.1 0.3,0.2 0,0.2 -0.2,0.2 -0.2,0.4 -0.4,0.3 -1.2,-0.4 -0.5,-0.5 0.1,0 0,0.2 0.1,0.2 0.2,0 0.1,-0.3 0.3,-0.3 z"
   id="path194"
   style="fill:#000080" />
				<path
   class="st0"
   d="m 79.7,18.4 c 0,0.1 0,0.2 0,0.3 -0.4,0.2 -0.8,-0.1 -0.8,-0.6 0.3,-0.4 0.3,0 0.4,0.3 0.1,-0.1 0.3,-0.1 0.4,0 z"
   id="path196"
   style="fill:#000080" />
				<path
   class="st0"
   d="m 77.7,17.4 c 0.1,0 0.1,0.1 0.2,0.1 -0.1,0.3 -0.3,0.5 -0.6,0.4 -0.1,-0.1 -0.3,-0.5 0,-0.5 0.1,0 0.1,0.1 0.1,0.2 0.2,0 0.1,-0.2 0.3,-0.2 z"
   id="path198"
   style="fill:#000080" />
				<path
   class="st0"
   d="m 75.8,17.4 c 0.2,0.5 -0.8,0.6 -0.7,0 0.1,-0.1 0.3,0 0.3,0.1 0.1,-0.1 0.2,-0.2 0.4,-0.1 z"
   id="path200"
   style="fill:#000080" />
				<path
   class="st0"
   d="m 73.9,33 c 0.5,-0.1 0.9,-0.5 1.3,-0.2 -0.1,0.1 -0.3,0.3 -0.2,0.6 -0.3,-0.1 -0.8,0.1 -1.1,-0.4 z"
   id="path202"
   style="fill:#000080" />
				<path
   class="st0"
   d="m 74.4,34.8 c 0.4,0.4 0.9,1.3 0.4,1.8 -0.4,-0.2 -0.8,-0.3 -1,-0.6 -0.1,0.1 0.1,0.4 0,0.6 -0.6,0.2 -0.8,-0.4 -1.1,-0.8 -0.3,0 -0.3,-0.2 -0.2,-0.4 0.4,0.1 0.5,0.5 0.8,0.7 0.2,-0.3 -0.1,-0.6 0,-1 0.4,0.1 0.8,0.3 0.8,0.8 0.7,0.2 0.3,-0.6 0,-0.8 0.1,-0.1 0.1,-0.3 0.3,-0.3 z"
   id="path204"
   style="fill:#000080" />
				<path
   class="st0"
   d="m 74.4,30.2 c 0.1,0.5 -0.5,0.8 -1,0.8 -0.1,0 -0.8,-0.1 -1,-0.2 -0.8,-0.5 0.2,-1.9 0.9,-1 0.5,0 0.9,0.1 1.1,0.4 z"
   id="path206"
   style="fill:#000080" />
				<path
   class="st0"
   d="m 73.6,18 c 0,-0.1 0.3,-0.3 0.4,-0.1 0,0.5 -0.6,0.5 -0.8,0.3 -0.1,-0.3 0.2,-0.3 0.4,-0.2 z"
   id="path208"
   style="fill:#000080" />
				<path
   class="st0"
   d="m 72,18.7 c 0.1,0.4 -0.6,0.5 -0.8,0.3 0.1,-0.3 0.6,-0.3 0.8,-0.3 z"
   id="path210"
   style="fill:#000080" />
				<path
   class="st0"
   d="m 70.6,32.8 c 0.4,-0.2 0.7,-0.5 1.3,-0.4 -0.1,0.2 -0.2,0.3 -0.2,0.6 -0.5,0.1 -0.9,0.1 -1.1,-0.2 z"
   id="path212"
   style="fill:#000080" />
				<path
   class="st0"
   d="m 69.2,29.5 c 0.5,-0.1 1,0.4 0.8,1 -0.3,0.3 -1.2,0.3 -1.9,0.3 -0.4,0 -1,0 -1.3,-0.1 -0.5,-0.4 0.1,-1.2 0.6,-1.2 0.3,0 0.3,0.3 0.6,0.5 0,-0.3 0.2,-0.6 0.5,-0.5 0,0.2 0.2,0.3 0.3,0.5 0.3,-0.1 0.2,-0.4 0.4,-0.5 z"
   id="path214"
   style="fill:#000080" />
				<path
   class="st0"
   d="m 69.5,18.4 c 0,0.1 0,0.4 -0.3,0.4 0,-0.2 -0.1,-0.3 0,-0.5 0.2,0.1 0.3,0.1 0.3,0.1 z"
   id="path216"
   style="fill:#000080" />
				<path
   class="st0"
   d="m 68.5,32.9 c 0,0.1 0.3,0 0.2,0.2 -0.4,0.4 -1,-0.2 -1.3,0 0.2,-0.5 0.7,-0.5 1.3,-0.5 0,0.1 -0.2,0.1 -0.2,0.3 z"
   id="path218"
   style="fill:#000080" />
				<path
   class="st0"
   d="m 67.2,36.2 c -0.5,0.4 -0.9,-0.3 -1.4,-0.4 0,0.3 0.2,0.3 0.1,0.5 -0.8,0.3 -1.4,-0.7 -1.4,-1.3 0.5,-0.1 0.4,0.6 0.8,0.8 0.1,-0.1 0.1,-0.3 0.2,-0.4 0.5,-0.2 0.8,0.2 1.2,0.3 0.1,-0.3 -0.4,-0.6 -0.1,-1 0.3,0.4 0.5,1 0.6,1.5 z"
   id="path220"
   style="fill:#000080" />
				<path
   class="st0"
   d="m 65,18.1 c 0.2,0.3 0.5,-0.1 0.7,0.1 0,0.4 -0.9,0.7 -0.8,0 0,0 0.1,0 0.1,-0.1 z"
   id="path222"
   style="fill:#000080" />
				<path
   class="st0"
   d="M 65.3,33.1 C 65,33.4 64.5,32.9 64,32.8 c 0,-0.1 0,-0.2 0,-0.3 0.4,-0.1 0.8,-0.3 1.1,-0.2 -0.1,0.4 0.1,0.6 0.2,0.8 z"
   id="path224"
   style="fill:#000080" />
				<path
   class="st0"
   d="m 64.5,29.7 c 0.5,0.4 0.1,1.1 -0.4,1.3 -0.4,0 -0.6,0 -1.1,0 -0.7,-0.2 -0.5,-1.4 0.4,-1 0.2,-0.3 0.6,-0.4 1.1,-0.3 z"
   id="path226"
   style="fill:#000080" />
				<path
   class="st0"
   d="m 63.8,17.4 c 0.1,0.1 0.1,0.3 0,0.4 -0.3,0 -0.3,0.1 -0.6,0.1 -0.1,-0.2 -0.1,-0.3 0,-0.5 0.2,0 0.4,0.1 0.6,0 z"
   id="path228"
   style="fill:#000080" />
				<path
   class="st0"
   d="m 62.1,32.9 c 0,0.1 0.3,0 0.2,0.2 -0.5,0.1 -1.3,0 -1.6,-0.4 0.4,-0.2 1.5,-0.6 1.4,0.2 z"
   id="path230"
   style="fill:#000080" />
				<path
   class="st0"
   d="m 62.2,17 c 0,0.7 -1,0.6 -0.8,-0.1 0.3,-0.1 0.2,0.1 0.3,0.3 0.1,0 0.2,-0.2 0.3,-0.3 0.1,0 0.1,0.1 0.2,0.1 z"
   id="path232"
   style="fill:#000080" />
				<path
   class="st0"
   d="m 60.2,17.2 c 0.1,0.3 -0.4,0.6 -0.7,0.4 0,-0.2 0,-0.3 0,-0.5 0.4,0.2 0.4,0.1 0.7,0.1 z"
   id="path234"
   style="fill:#000080" />
				<path
   class="st0"
   d="m 59.6,36.2 c -0.5,0.2 -0.6,-0.6 -1.1,-0.6 -0.3,0.1 -0.2,0.5 -0.4,0.7 -0.5,-0.1 -0.7,-0.5 -0.8,-1 0.3,-0.3 0.5,0.3 0.5,0.5 0.2,-0.3 0.5,-0.9 1,-0.5 0.2,0.1 0.2,-0.1 0.3,-0.1 0.1,0.3 0.4,0.7 0.5,1 z"
   id="path236"
   style="fill:#000080" />
				<path
   class="st0"
   d="m 57.9,17.9 c 0.3,0 0.3,-0.3 0.6,-0.2 0,0.5 -0.3,0.7 -0.9,0.6 0,-0.2 -0.1,-0.2 -0.1,-0.3 0.1,-0.2 0.2,-0.2 0.4,-0.1 z"
   id="path238"
   style="fill:#000080" />
				<path
   class="st0"
   d="m 56.4,19.3 c 0.2,-0.1 0.4,-0.3 0.5,0 -0.1,0.2 -0.2,0.4 -0.5,0.4 -0.1,-0.1 -0.3,-0.3 -0.2,-0.5 0.1,-0.1 0.1,0 0.2,0.1 z"
   id="path240"
   style="fill:#000080" />
				<path
   class="st0"
   d="m 56.3,24.6 c 0,0.1 0,0.2 0,0.3 -0.2,0.1 -0.8,0.3 -0.8,-0.1 0.4,-0.1 0.5,0 0.8,-0.2 z"
   id="path242"
   style="fill:#000080" />
				<path
   class="st0"
   d="m 55.7,20.8 c 0.6,0.3 -0.3,0.8 -0.5,0.3 0,-0.2 0,-0.2 0,-0.3 0.3,0 0.4,0.2 0.5,0 z"
   id="path244"
   style="fill:#000080" />
				<path
   class="st0"
   d="m 55.1,23.2 c -0.4,-0.4 0.5,-0.6 0.8,-0.5 -0.1,0.6 -0.5,0.4 -0.8,0.5 z"
   id="path246"
   style="fill:#000080" />
				<path
   class="st0"
   d="m 10.2,94.1 c -0.5,0 -1,-0.1 -1.3,0.1 0,0 -0.4,0 -0.2,0.1 1.3,0 2.9,0.3 4.3,0.2 1,-0.1 2.2,0 2.8,-0.1 0.6,-0.1 1.1,-0.2 1.6,-0.2 0.5,0 1,0.1 1.5,0 0.2,0 0.5,-0.1 0.6,-0.1 0.6,0 1.1,0.1 1.8,0 2,-0.2 3.3,-0.6 4.4,-1.6 0.5,-0.5 0.9,-1.4 1.3,-2.2 0.1,-0.3 0.3,-0.8 0.4,-1.1 0.4,-1.7 0.6,-3.5 0.7,-5.2 0.3,-0.7 0.3,-2 0.5,-3 0.1,-1.1 0.4,-2.3 0.6,-3.1 0.1,-0.5 0.3,-0.9 0.4,-1.2 0.2,-0.5 0.2,-1.1 0.3,-1.6 -0.3,0.4 -0.5,1 -0.7,1.6 -0.2,0.6 -0.3,1.3 -0.5,1.9 -0.1,0.6 -0.4,1.1 -0.5,1.7 -0.1,0.7 -0.2,1.3 -0.3,2 -0.1,1 -0.2,1.9 -0.3,3 0,0.2 -0.1,0.4 -0.2,0.6 0,0.2 0,0.5 -0.3,0.6 -0.1,-2 0.5,-3.9 0.7,-6 0,-0.5 0.1,-1 0.2,-1.6 0.1,-0.8 0.6,-1.6 0.5,-2.3 0,-0.2 -0.2,-0.3 -0.2,-0.5 0,-0.3 0.1,-0.7 0.1,-1 0,-0.3 0.1,-0.7 -0.1,-0.8 -0.3,0.2 -0.2,0.6 -0.3,1 -0.1,1.3 -0.7,2.8 -0.6,4.3 -0.2,0.2 -0.1,0.4 -0.2,0.7 0,0.1 -0.1,0.3 -0.2,0.4 -0.1,0.5 -0.2,1.2 -0.3,1.8 0,0.5 0,0.9 0,1.4 0,0.1 -0.1,0.2 -0.1,0.3 0,0.1 0,0.3 0,0.4 0,0.2 -0.1,0.4 -0.2,0.5 -0.1,0.6 -0.1,1.3 -0.2,1.8 0,0.3 0,0.6 0,0.9 -0.1,0.4 -0.5,0.9 -0.3,1.4 -0.3,0.9 -0.7,1.7 -1.3,2.4 -1.3,1.3 -3.4,1.9 -5.4,1.9 -0.8,0 -1.7,0.2 -2.5,0.3 -1.8,0.1 -3.5,0.1 -4.9,0.3 -0.5,-0.2 -1.1,0 -1.6,0 z m -1.6,1.6 c 0.7,0.1 1.7,-0.1 2.5,-0.1 0.9,0.2 2,0.1 3.2,0 0.4,0 0.8,-0.1 1.2,-0.1 0.3,0 0.5,0.1 0.7,0.1 0.2,0 0.3,-0.1 0.5,-0.1 0.6,-0.1 1.1,0 1.7,0 0.2,0 0.1,0.2 0.3,0.2 0.4,-0.2 1,0.3 1.6,0 0.6,0.3 1.6,-0.1 2.2,0 0.1,-0.1 0.2,-0.2 0.3,-0.3 0.7,0.2 1.3,0 2.1,0.2 0.8,-0.6 1.7,0.7 2.6,0.1 0.5,0.1 1.1,0.3 1.5,0.3 0.5,-0.1 1,0.1 1.6,0.2 0.9,-0.8 2.2,0.4 3.3,0 1.1,0.4 2.3,0.4 3.4,0.2 0.1,0 0.1,-0.3 0.3,-0.3 0.3,0.2 1.2,0.5 1.7,0.4 0.1,0 0.3,-0.2 0.4,-0.2 0.2,0 0.5,0.1 0.7,0.2 0.5,0 1.1,-0.2 1.3,0.3 0.4,-0.3 1.1,-0.3 1.6,0 0.1,0 0.1,-0.2 0.3,-0.2 0.6,0 1.1,0 1.5,0.2 0.4,0.1 0.9,0.5 1.4,0.2 -0.2,-0.2 -0.5,-0.2 -0.4,-0.5 0.2,-0.6 1.7,0.3 2.2,0.1 0.4,0.2 0.9,0.2 1.4,0.4 0.4,-0.3 0.8,0.1 1.1,-0.2 -0.3,-0.4 -1.1,-0.4 -1.5,-0.8 0.9,0 1.6,0.7 2.6,0.6 0.2,0 0.4,-0.2 0.6,-0.3 0.2,0 0.5,0.1 0.8,0.2 0.3,0.1 0.6,0.2 0.9,0.2 0.5,0 0.9,-0.2 1.4,-0.3 0.5,-0.1 1,0.2 1.4,0 0.4,0.2 1,0.3 1.4,0.1 0.4,0.1 0.9,0.1 1.2,0 0.1,0 0.2,-0.2 0.3,-0.2 0.4,0 0.8,0.2 1.2,0.2 0.3,0 0.6,-0.3 0.8,-0.3 0.6,0 1.2,0.4 1.9,0.4 0.2,0 0,-0.3 0.3,-0.3 1.4,0.4 2.6,0.8 3.9,1.3 0.3,-0.3 0.6,0 0.9,0 0.7,0.1 1.3,-0.1 1.9,-0.1 0.3,0 0.5,0.1 0.8,0 0.7,-0.1 1.3,-0.3 2,-0.4 0,0.1 -0.2,0.2 -0.1,0.3 0.8,0 1.9,-0.3 2.7,-0.6 0.7,0.4 1.6,-0.3 2.2,-0.3 -0.4,0.3 -0.8,0.6 -1.1,1 0.7,0.3 1.4,-0.5 2.3,-0.5 0,0.2 -0.3,0.1 -0.2,0.3 0.5,-0.1 1,-0.3 1.6,-0.5 0.5,-0.1 1.1,-0.3 1.5,-0.5 0.5,0.5 1,0 1.5,0 0.3,0 0.6,0.2 1,0 0.4,0.5 1.1,0 1.7,0.2 0.3,0.5 0.7,0.1 1,0.1 0.5,0 0.8,0.3 1.3,0.4 0.2,0 0.5,-0.1 0.7,-0.1 0.7,0 1.3,0.2 1.8,-0.2 0.5,0.1 0.9,0.2 1.3,0 0.2,0.2 0.4,0.2 0.8,0.2 0.6,-0.4 1.9,-0.5 2.7,-0.3 0.3,-0.3 0.9,-0.1 1.3,-0.3 0.2,0.1 0.2,0.3 0.5,0.4 0.2,-0.1 0.4,-0.2 0.6,-0.3 0.2,0.1 0.3,0.2 0.5,0.4 0.6,0.1 1,-0.2 1.5,-0.3 0.2,0.1 0.4,0.2 0.6,0.1 0.2,0.2 0.5,0.5 0.9,0.5 0.2,0 0.4,-0.2 0.5,-0.3 0.4,-0.1 1.1,-0.1 1.7,-0.3 0.3,-0.1 0.5,-0.3 0.8,-0.3 0.4,0 0.7,0.2 1,0 0.1,0.1 0,0.1 0,0.2 0.2,0 0.3,-0.2 0.4,0 -0.1,0 -0.3,0.3 -0.3,0.5 0.8,0.1 1.7,-0.2 2.4,-0.5 0.5,0.2 1.2,-0.2 1.7,-0.1 0.2,-0.2 0.7,-0.2 0.8,0.1 0,0.2 -0.2,0.2 -0.2,0.4 0.7,0.2 1.1,-0.4 1.9,-0.3 -0.1,0.1 -0.4,0 -0.4,0.3 0.3,0.3 0.5,-0.1 0.8,-0.1 0.2,-0.1 0.4,0 0.6,0 0.6,-0.1 1.2,-0.4 1.6,-0.6 0.5,0 0.8,0.4 1.1,0.4 0.2,0 0.5,-0.2 0.8,-0.2 0.1,0 0.2,0.1 0.4,0.1 0.1,0 0.3,-0.1 0.4,-0.1 0.1,0 0.2,0.2 0.3,0.2 0.4,0 0.9,-0.2 1.3,-0.2 0.2,0 0.4,0.1 0.5,0.1 1,0 1.9,-0.5 2.9,-0.1 1.5,-0.3 3.5,0.1 5.2,-0.4 0.3,-0.9 -0.9,-0.3 -1.3,-0.3 -0.6,0 -1.1,-0.1 -1.5,-0.2 -0.1,0 -0.2,0.1 -0.3,0.1 -0.5,-0.1 -1.1,0 -1.6,-0.1 -0.4,0 -0.8,0 -1.2,0 -1.5,0 -3,0 -4.5,-0.1 -0.1,0 -0.3,0 -0.4,0 -1.1,0 -2.2,-0.1 -3.2,-0.4 -0.1,0.1 -0.2,0.1 -0.4,0.1 -0.6,-0.3 -1.3,-0.1 -1.9,-0.2 -0.3,-0.1 -0.6,-0.3 -0.9,-0.2 -0.5,-0.3 -1,-0.2 -1.6,-0.3 -0.4,0 -0.8,-0.2 -1.3,-0.3 -0.1,0 -0.3,0.1 -0.4,0 -0.1,0 -0.2,-0.1 -0.3,-0.1 -0.1,0 -0.3,0 -0.4,0 -0.6,0 -1.2,-0.2 -1.7,-0.2 -0.3,0 -0.6,0.3 -0.9,0.3 -0.3,0 -0.4,-0.1 -0.7,-0.1 -0.1,0 -0.2,0.1 -0.3,0.1 -1.6,0.2 -2.9,0 -4.4,0.1 -0.3,0.3 -0.9,0.1 -1.2,0 -0.5,-0.1 -1.6,0 -2.1,0 -1.4,0.3 -2.8,-0.1 -4.3,0.2 -0.4,0.1 -0.8,0.3 -1.2,0.3 -0.3,0 -0.6,-0.3 -0.9,-0.3 -0.3,0 -0.5,0.3 -0.7,0.3 -0.1,-0.1 0,-0.3 -0.2,-0.3 -0.3,0.1 -0.4,0.3 -0.8,0.3 -0.1,-0.1 -0.1,-0.2 -0.2,-0.4 -0.1,0 -0.2,0.2 -0.3,0.1 0,-0.1 0,-0.3 0.1,-0.5 -0.2,-0.1 -0.3,0.3 -0.5,0.2 -0.2,-0.5 0.4,-0.9 0.5,-1.5 0.4,-0.4 1.1,-0.3 1.8,-0.5 0.2,-0.1 0.4,-0.3 0.6,-0.3 0.2,0 0.5,-0.1 0.7,-0.2 0.7,-0.1 1.3,0 1.8,0.1 0.6,0 1.3,0 1.9,-0.1 0.5,0 1,-0.2 1.6,-0.1 0.4,0 0.7,0 1.1,0 0.3,0 0.6,0 0.9,0 0.7,0 1.5,-0.2 2.2,-0.2 0.8,0 1.5,-0.2 1.1,-1 0,0 -0.1,0 -0.1,0 -0.7,0 -1.5,0.2 -2.2,0.2 -0.2,0 -0.3,-0.1 -0.5,-0.1 -0.7,0 -1.8,0.2 -2.6,0.2 -0.3,0 -0.5,0 -0.7,0 -0.8,0 -1.6,0.2 -2.4,0.2 -0.1,0 -0.2,0 -0.3,0 -0.6,0 -1.2,0.2 -1.8,0.2 -0.5,0 -1,-0.1 -1.4,0 -0.4,0 -0.7,0 -1.1,0.1 -0.3,0 -0.5,0.2 -0.8,0.2 -0.2,0 -0.3,-0.1 -0.5,-0.1 -0.3,0 -0.6,0.3 -0.9,0.1 -0.1,-0.1 0.1,-0.3 -0.1,-0.3 -0.4,0 -0.7,0.4 -1,0.3 -0.2,-0.1 0.1,-0.3 0.1,-0.5 -0.3,0 -0.5,0.4 -0.8,0.2 0,-0.5 0.5,-0.5 0.6,-0.9 -0.2,-0.4 -0.6,-0.1 -0.9,0 -0.3,0.1 -0.8,0 -1.1,0.3 -0.4,0 -0.5,0.2 -0.8,0 -0.3,0.3 -0.7,0.6 -1.3,0.7 -0.1,0 -0.1,0.2 -0.2,0.3 -0.7,0.4 -1.3,1 -2.3,1 -0.4,0.3 -0.7,0.6 -1.4,0.6 -0.6,0.4 -1.5,0.8 -2.3,0.9 -0.2,0.1 -0.3,0.3 -0.5,0.3 -0.3,0.1 -0.8,0 -1.2,0.1 -0.2,0 -0.4,0.2 -0.5,0.2 -0.1,0 -0.3,-0.1 -0.4,0 -0.2,0 -0.3,0.1 -0.4,0.2 -0.4,0.1 -0.8,0.2 -1.3,0.2 0.2,-0.2 0.4,-0.4 0.6,-0.6 1.1,-0.4 1.9,-1.1 2.9,-1.6 1.3,-0.8 2.5,-2 3.7,-2.8 0.4,-0.3 0.8,-0.3 1.2,-0.2 1.9,0.2 4.8,-0.3 6.7,0.1 0.5,-0.5 1.3,-0.9 2.3,-0.7 0.6,-0.3 1.5,-0.1 2.3,-0.2 1,-0.1 2.2,-0.3 3.2,-0.4 1.6,-0.1 3.3,-0.3 4.4,-0.7 0.4,-0.4 0.5,-0.7 0.6,-1.2 0.1,-0.4 0.2,-0.8 0.3,-1.4 0,-1.5 -0.2,-3.1 -0.4,-4.3 -0.1,-0.5 -0.2,-1 -0.2,-1.4 0,-0.4 -0.1,-0.8 -0.2,-1.1 C 97.3,77.4 97.3,76.9 97.2,76.1 97.1,75.1 97,74 96.7,73.2 96.7,73 96.5,72.9 96.4,72.7 96.1,72.2 95.9,71.6 95.7,71 95.3,70 95.2,69 95,68 c -0.1,-0.5 -0.3,-0.9 -0.3,-1.3 0,-0.3 0.1,-0.5 0.1,-0.9 0,-0.3 -0.1,-0.6 0,-0.9 0,-0.5 0.2,-0.9 0.3,-1.3 0.1,-1 0.1,-1.6 0.5,-2.3 0.1,-0.1 0.2,-0.2 0.3,-0.4 0.2,-0.3 0.3,-0.7 0.4,-1.1 0.1,-0.2 0.3,-0.5 0.3,-0.7 0.1,-0.3 0,-0.8 -0.1,-1.3 -0.1,-1.2 -0.4,-2.2 -0.4,-3.3 0,-1.4 -0.1,-2.9 -0.3,-4.1 -0.1,-0.3 -0.2,-0.9 -0.4,-1.1 -0.3,-0.2 -1,-0.2 -1.3,-0.2 -0.8,0 -1.8,0.4 -2.7,0.5 -0.1,0.1 -0.3,0.3 -0.4,0.4 -0.1,0 -0.1,-0.1 -0.3,-0.1 -0.1,0.2 -0.3,0.2 -0.3,0.4 -0.2,1.6 -0.2,3.7 -0.3,5.8 -0.1,2.6 -0.4,5.4 -0.8,7.7 0,0.1 0,0.2 0,0.3 0,0.3 -0.2,0.4 -0.1,0.7 -0.1,0.1 -0.1,0.2 -0.2,0.3 0.1,0.5 0,0.9 -0.1,1.5 -0.1,0.5 -0.3,0.9 -0.3,1.4 -0.1,0.5 -0.1,0.9 -0.2,1.4 -0.3,2 -1.2,4 -1.8,5.9 -0.3,0.8 -0.7,1.6 -1.1,2.3 0,0.1 -0.1,0.2 -0.1,0.4 -0.5,0.6 -0.8,1.3 -1.2,2 -0.3,0.5 -0.6,1.2 -1.1,1.5 -0.2,0.9 -1,1.2 -1.3,2 -1.2,1.1 -2.2,2.4 -3.5,3.4 -0.9,1.3 -2.4,2.2 -3.4,3.4 -1.4,1.1 -2.8,2.3 -4.5,3.1 -0.6,0.4 -1.5,1.2 -2.3,1.3 -0.7,0 -1,-0.8 -1.8,-0.8 -1,-0.7 -1.9,-1.4 -2.8,-2.2 C 63,91.3 62.5,90.9 62,90.5 61.1,89.7 60.3,88.9 59.5,88.1 59.3,87.9 59.1,87.7 58.9,87.5 58.8,87.4 58.7,87.2 58.6,87 58,86.5 57.4,86.1 57,85.3 56.4,84.8 55.7,84 55.3,83.3 55.2,83.1 55.1,82.9 54.9,82.7 54.8,82.5 54.5,82.3 54.4,82.1 54.3,82 54.3,81.8 54.2,81.7 53.3,80.5 52.3,79.3 51.6,77.9 51.4,77.5 51.1,77.1 50.9,76.7 50.6,76.1 50.3,75.3 50,74.6 49.8,74.2 49.6,73.8 49.4,73.4 49.2,73 49.1,72.5 48.9,72.1 c -0.6,-1.5 -1.4,-3.2 -1.5,-4.7 0,-0.1 -0.1,-0.2 -0.2,-0.3 0,-0.7 -0.3,-1.3 -0.4,-2.1 -0.2,-1.3 -0.2,-2.7 -0.3,-4 0,-0.7 -0.2,-1.3 -0.1,-1.9 0.1,-0.6 0,-1.4 0,-2 -0.1,-2.5 0.3,-4.8 0.3,-7 0.1,-0.3 0.1,-0.5 0,-0.7 -0.4,0 -0.6,0.1 -0.9,0 -0.5,-0.1 -0.7,-0.6 -1.1,-0.8 -0.7,-0.4 -2.2,-0.1 -3.4,-0.3 0,0 0,0.1 -0.1,0.1 0.1,0.6 0.1,1.3 0,2 -0.1,0.7 -0.4,1.4 -0.4,2.1 -0.1,1.4 -0.2,2.7 -0.5,3.9 -0.1,0.4 -0.3,0.7 -0.3,0.9 0,0.3 0.1,0.9 0.3,1.2 0.2,0.7 0.7,1.2 0.9,1.9 0.1,0.4 0.2,0.7 0.3,0.9 0.1,0.5 0.1,1 0.1,1.5 0.1,0.6 0.3,1.2 0.2,1.9 -0.1,1.1 -0.3,2.1 -0.5,3.2 -0.2,0.8 -0.3,1.6 -0.6,2.2 -0.3,0.7 -0.9,1 -1.2,1.7 0,0 0,0.1 0,0.1 0,0 -0.1,0.1 -0.1,0.2 -0.2,0.6 -0.1,1 -0.1,1.6 0,0 0,0.2 -0.1,0.2 -0.3,4.2 -0.6,8.1 -1,12 0.3,1.3 2,1.1 3.2,1.3 1.5,0.2 3.5,0.5 5.2,0.7 0.9,0.1 1.7,-0.2 2.5,0 0.4,0.1 0.7,0.3 1.1,0.4 0.3,0.1 0.6,0.1 0.8,0.2 0.3,0.1 0.5,0.5 0.8,0.5 1.1,0.1 2.5,0.1 3.7,0.1 0.4,0 0.8,-0.1 1.1,-0.1 0.3,0 0.6,0.2 0.9,0.2 0.5,0 1.4,0.1 1.9,0.3 1.5,1.6 3.2,2.9 5.1,4.1 0,0.3 0.5,0.4 0.5,0.6 -1.6,-0.3 -2.5,-0.9 -3.9,-1.2 -0.3,-0.5 -0.7,-0.5 -1.2,-0.7 -0.6,-0.2 -1.1,-0.3 -1.6,-0.5 -0.5,-0.2 -1,-0.5 -1.6,-0.5 -0.4,-0.5 -1.4,-0.5 -2.1,-0.8 -0.1,-0.2 -0.2,-0.5 -0.4,-0.6 -0.6,0.2 -1.1,-0.5 -1.5,-0.3 0,0.1 0.5,0.2 0.4,0.5 -0.2,0 -0.3,-0.2 -0.6,-0.1 0,0.2 0,0.2 0,0.4 -0.3,0.1 -0.4,0.1 -0.7,0 0,0.1 0.1,0.3 0,0.3 -0.2,0 -0.3,-0.1 -0.6,0 -0.2,-0.3 -0.6,-0.3 -1,-0.4 -0.5,0 -1.1,0.1 -1.6,0 -0.3,0 -0.5,-0.2 -0.8,-0.2 -1.4,-0.2 -2.8,-0.2 -4.3,-0.3 -1.9,-0.2 -3.3,-0.1 -5,-0.2 -1.3,-0.1 -2.7,-0.2 -4,-0.3 0.3,0.8 1,0.7 1.8,0.9 0.4,0.1 0.9,0.2 1.3,0.3 1.2,0.1 2.1,0.2 3.2,0.1 1.4,-0.1 2.7,0.4 3.6,0.4 0.4,0 0.8,-0.2 1.1,-0.2 0.3,0 0.9,0.3 1.2,0.4 0.7,0.3 1.5,1 1.9,1.5 0.2,0.2 0.3,0.5 0.3,0.8 -0.2,0 -0.3,-0.4 -0.5,-0.3 -0.2,0.3 0.2,0.3 0.2,0.5 -0.3,0 -0.5,0 -0.8,-0.1 0,0.2 0.2,0.2 0,0.3 -0.8,-0.6 -2.1,-0.2 -3,-0.4 -0.2,0 -0.4,-0.1 -0.6,-0.2 -0.9,-0.1 -1.9,0.1 -2.8,-0.1 -1.1,-0.2 -2.4,0 -3.2,-0.2 -0.5,-0.1 -1.1,-0.1 -1.7,-0.2 -0.5,0 -0.8,-0.2 -1.3,-0.1 -0.4,0 -0.8,0.2 -1.1,0.2 -1,0.1 -2.1,-0.4 -3.1,-0.1 -0.3,-0.3 -0.7,-0.2 -1.1,-0.2 -0.4,0.1 -0.8,0 -1.3,0.1 -0.2,0 -0.3,0.1 -0.5,0.1 -0.3,0.1 -0.7,0 -1,0 -0.8,0.1 -1.6,0 -2.3,0.1 -0.1,0 -0.3,0.1 -0.4,0.1 -0.2,0 -0.3,0 -0.5,0 -0.8,0.2 -1.6,0.5 -2.3,0.6 -2.5,0.3 -5.5,0.1 -8.8,0.2 -0.8,0 -1.6,0.1 -2.4,0.1 -1.6,-0.1 -2.7,-0.4 -3.9,-0.3 0.3,0.4 0.8,0.6 1.2,0.9 0.7,1 1,1.2 0.9,1.2 z M 7.5,93.4 C 8.8,93 10.7,93 11.9,93 c 0.2,-0.1 0.5,-0.2 0.7,-0.2 2.6,-0.2 5.2,0 7.5,-0.7 0.8,-0.2 1.5,-0.4 2.1,-0.7 0.3,-0.4 0.7,-0.5 1.1,-0.8 0.9,-0.9 1,-2.4 1.3,-3.6 -0.1,-2.1 0.3,-4.8 0.4,-7.6 0,-1.1 0,-2.4 0.1,-3.2 0.1,-0.8 0.3,-1.9 0.3,-2.5 -0.1,-1.2 -0.4,-2.4 -0.4,-3.5 0,-1.6 -0.1,-3.2 0.1,-4.6 0.2,-1.6 0.4,-3 0.8,-4.5 0.2,-0.7 0.4,-1.4 0.7,-2.1 0.3,-0.6 0.6,-1.3 0.8,-2 0.1,-0.5 0.2,-1 0.3,-1.5 0.1,-0.5 0.2,-1 0.4,-1.4 0.2,-0.5 0.6,-0.9 0.8,-1.4 0.1,-0.2 0.1,-0.5 0.2,-0.8 0.1,-0.2 0.3,-0.5 0.3,-0.7 0.3,-0.8 0.4,-1.8 0.7,-2.7 0.3,-0.8 1,-1.6 1.1,-2.4 0.2,-0.9 0,-1.9 -0.1,-2.6 -0.2,-1.5 -0.1,-3.1 0.3,-4.4 0,-0.7 0.2,-1.2 0.3,-1.9 0.2,-1.4 0,-2.7 -0.2,-4.1 0,-0.4 -0.2,-0.8 -0.2,-1.2 0,-0.3 0.1,-0.6 0,-0.9 0,-0.3 -0.2,-0.7 -0.3,-1.1 -0.1,-0.5 -0.1,-1.1 -0.2,-1.6 -0.2,-0.9 0,-1.9 -0.1,-2.6 -0.5,-0.8 -0.7,-1.5 -0.8,-2.4 0,-0.2 -0.1,-0.5 0,-0.8 0,-0.5 0.5,-1.8 0.8,-1.9 0.3,0 0.6,0.3 0.8,0.5 0.5,0.5 1.1,1 1.4,1.6 0.2,0.4 0.2,1.2 0.5,1.3 0.4,0.1 1.1,-0.9 1.3,-1.1 0.5,-0.8 0.6,-2.1 1.3,-2.6 0.4,0 0.4,0.4 0.5,0.7 0.2,0.5 0.5,1.1 0.4,1.9 -0.5,0.6 -0.5,1.7 -0.9,2.4 -0.3,0 -0.8,-0.2 -1,0 0.2,0.3 0.7,0.1 1,0.3 0.4,0.1 0.7,0.3 1.1,0.3 0,0.3 0.3,0.2 0.5,0.3 0.3,0.2 0.4,0.7 0.7,0.9 -0.6,0.5 -0.1,0.9 0.3,1.3 0.4,0.4 1.2,0.8 1.4,1.3 0.2,0.5 -0.2,1.1 -0.5,1.6 -0.5,0.1 -0.8,0.5 -1.4,0.3 -0.3,0.3 -0.8,0.3 -1.1,0.5 -0.1,0.9 0.5,1.5 0.7,2.2 0.1,0.3 0.1,0.6 0.2,0.9 0.2,0.4 0.7,0.8 1.1,1.2 0.3,0.4 0.8,0.9 0.9,1.3 0.1,0.3 -0.1,0.8 0.3,0.9 -0.1,-0.8 0.5,-1.1 0.7,-1.8 0.5,-0.4 0.8,-1 1.5,-1.2 0.4,-0.4 0.9,-0.6 1.5,-0.9 0.4,-0.2 0.8,-0.4 1.3,-0.6 1,-0.4 2.3,-1 3.4,-1.4 0.5,-0.2 1.1,-0.5 1.7,-0.7 0.6,-0.1 1.4,-0.5 2,-0.4 0.3,0 0.6,0.4 0.6,0.6 0,0.4 -0.5,0.6 -0.8,0.9 -0.4,0.3 -0.7,0.5 -1,0.7 -0.8,0.5 -1.6,0.8 -2.2,1.3 -0.6,0.4 -1.4,0.8 -2.1,1.3 -0.6,0.5 -1.4,0.9 -2,1.5 -0.3,0.3 -0.7,0.7 -0.8,1 -0.3,0.8 0.2,2.1 0.5,2.7 0.1,0.3 0.3,0.7 0.4,0.8 0.1,0 0.8,-0.2 1.1,-0.3 0.4,-0.1 0.7,-0.3 1.1,-0.5 0,-0.7 0.4,-1.1 0.9,-1.4 -0.2,-0.5 0.3,-0.6 0.6,-0.8 0.2,-0.2 0.3,-0.5 0.5,-0.5 0.2,0 0.4,0.2 0.5,0.2 0.2,0 0.4,-0.3 0.6,-0.3 0.3,0 0.5,0.3 0.7,0.5 0.4,-0.3 0.9,0.1 0.8,0.5 0.3,0 0.4,-0.2 0.5,0 0.2,0.2 0.1,0.5 0.1,0.8 3.1,0.4 6.7,0.4 9.8,0.4 2.4,0 5.4,0.1 7.5,0.1 2.3,0 4.4,0 7.3,0.1 2.3,0 5,0.2 7.3,0.1 0.3,-0.3 0.2,-0.9 0.6,-1.1 0.2,0 0.3,0.1 0.5,0 0.3,-0.1 0.4,-0.4 0.7,-0.4 0.5,0 0.6,0.4 1,0.5 0.2,0 0.4,-0.2 0.6,-0.2 0.4,0 1.1,0.4 1.2,0.5 0.1,0.1 0.1,0.3 0.2,0.4 0.2,0.2 0.4,0.3 0.5,0.4 0.1,0.2 0,0.6 0.3,0.9 0.1,0.2 0.6,0.3 0.9,0.4 0.3,0.2 0.6,0.3 0.9,0.3 0.4,-0.3 0.4,-0.9 0.6,-1.5 0.1,-0.5 0.4,-1.1 0.3,-1.6 -0.2,-0.7 -0.8,-0.9 -1.1,-1.5 -1.9,-1.3 -3.6,-2.7 -6,-3.5 -0.4,-0.4 -1,-0.6 -1.5,-0.9 -0.8,-0.7 -0.4,-1.6 0.7,-1.7 0.2,0.2 0.5,0.1 0.7,0.1 0.8,0.2 1.6,0.7 2.4,1 0.4,0.1 0.8,0.2 1.1,0.3 0.3,0.1 0.7,0.3 1.1,0.5 1,0.4 1.9,0.9 2.8,1.4 0.3,0.2 0.7,0.3 1,0.5 1.4,0.8 2.5,2.4 2.3,4.3 0.4,-0.2 0.3,-0.5 0.3,-1.1 1.2,-1.5 2.6,-2.8 3.3,-4.7 0.2,-0.5 0.3,-1.1 0.2,-1.7 C 98.8,33 98,32 97,32.3 c -0.6,-0.3 -0.7,-1 -0.7,-1.6 0.6,-0.3 1.5,-1 2,-1.5 0.2,-0.2 0.3,-0.4 0.3,-0.7 0,-0.3 -0.3,-0.4 -0.3,-0.7 0.4,-0.7 1.5,-0.7 2.1,-1.2 -0.7,-1.6 -1.3,-4.6 0.3,-5.6 0.3,0.3 0.6,0.7 0.7,1.2 0.3,0.8 0.5,2.2 1.2,2.6 0.8,0.6 1,-0.3 1.3,-1 0.5,-1 1.1,-2.1 2.2,-2.3 0.3,0.4 0.3,1 0.3,1.5 0,0.5 0.1,1.1 0,1.6 -0.1,0.5 -0.3,1 -0.4,1.5 -0.2,1.2 -0.1,2.5 -0.3,3.8 0,0.3 -0.2,0.6 -0.2,0.9 -0.1,1.1 -0.2,1.8 -0.4,2.7 -0.2,0.8 -0.5,1.5 -0.5,2.2 0,0.7 0.1,1.1 0.3,1.8 0.1,0.3 0.1,0.6 0.2,1 0.3,1.8 0.5,3.7 0.4,5.6 -0.1,0.8 -0.4,1.7 -0.4,2.4 0,0.9 0.4,1.5 0.7,2.2 0.3,0.6 0.4,1.3 0.6,2.1 0.3,1 0.7,2.1 0.9,3 0.2,0.9 0.7,1.6 0.9,2.5 0.3,1.1 0.5,2.3 0.9,3.2 0.4,0.9 1,1.6 1.3,2.4 0.1,0.5 0.3,1.1 0.4,1.6 0.1,0.7 0.3,1.3 0.3,2 0.1,1.5 -0.2,3.1 -0.3,4.6 -0.1,1.5 0,2.2 0,3.3 0,1.3 0.2,2.6 0,4.1 -0.1,1 0,2.2 0,3.4 0,1.4 0,2.8 0.2,3.8 -0.2,2.4 0.3,4.9 1.3,6.3 0.8,0.7 1.4,1 2.5,1.3 0.4,0.1 0.8,0.3 1.2,0.4 0.5,0.1 0.9,0.1 1.4,0.2 0.3,0 0.6,0.1 0.9,0.2 1,0.1 2.1,0.1 3.2,0.2 1,0 2.1,0 3,0.1 0.3,0 0.5,0.1 0.8,0.2 0.3,0 0.6,0 0.9,0 1,0.2 2,0.2 2.4,1.1 0,0.2 -0.1,0.3 -0.1,0.6 0.2,0.2 0.5,0.2 0.6,0.5 0,0 0,0 0,0 0,0 0,0 0,0 0,0.3 -0.1,0.4 -0.2,0.6 -0.5,0.2 -1,0.5 -1.5,0.6 -1.4,0.3 -3.3,0.3 -4.9,0.3 -0.5,0 -1,0 -1.5,0.1 -2,0.2 -4.4,0.4 -6,0.5 -1.9,0.1 -3.6,0.4 -5.4,0.6 -1.3,0.1 -2.6,0.3 -4.1,0.2 -1.1,0 -2.2,0.2 -3.3,0.1 -0.4,0 -0.8,0 -1.1,0 -0.3,0 -0.7,0.1 -1.1,0.1 -0.3,0 -0.5,-0.1 -0.8,-0.1 -0.3,0 -0.6,0.1 -1,0.1 -0.3,0 -0.5,0 -0.8,0 -0.6,0 -1.2,0.2 -1.8,0.2 -0.6,0 -1.2,0 -1.9,0 -2,0.3 -3.8,0.3 -5.6,0.5 0,0 0,0 0,0 0,0 0,0 0,0 -1.3,0 -2.8,-0.1 -4.3,0 0,0 0,0 -0.1,0 0,0 -0.1,0 -0.1,0 -2.5,0 -4.4,-0.2 -6.5,-0.3 -2.2,-0.1 -4.4,-0.4 -6.7,-0.6 -1.1,-0.1 -2.3,-0.1 -3.3,0 -1.1,0 -2.1,0.2 -3.1,0.3 -1,0.1 -2,0 -3.1,0 -1,0 -2.1,0.1 -3.1,0.1 -1,0 -2,0 -3.1,0.1 -1.1,0 -2.5,0.1 -3.7,0 -3.5,-0.2 -6.5,-0.4 -10,-0.4 -0.3,0 -0.5,0 -0.8,-0.1 -0.3,0 -0.5,0 -0.8,0 -0.5,0 -1.1,-0.1 -1.7,-0.1 -1.2,0 -2.4,-0.2 -3.6,-0.3 -1.1,-0.1 -2.2,-0.4 -3.4,-0.5 -1,-0.1 -2.4,0 -3.6,-0.2 -0.6,-0.1 -1.2,-0.3 -1.8,-0.5 -0.6,-0.2 -1.3,-0.5 -1.9,-0.6 -0.6,-0.1 -1.4,0 -2.2,-0.1 -0.7,0 -1.3,-0.2 -2,-0.2 -0.6,0 -1.2,0 -1.9,0 -1.4,-0.1 -2.7,0 -3.9,-0.2 C 11.2,95.8 9.5,95.9 7.5,95.5 7.6,96.1 7.2,96 6.9,96 6.5,95.9 6.3,95.7 5.9,95.4 c 0,-0.1 0,-0.2 0,-0.3 C 6.2,94.7 7.1,94.6 6.7,93.8 7,93.7 7.2,93.5 7.5,93.4 Z M 44.2,43.6 c -0.1,-0.7 -0.8,-1.6 -0.9,-2.7 0,-0.4 0.1,-0.7 0.1,-1.1 0,-1 0.4,-1.6 0.9,-2.4 0.2,-0.1 0.5,-0.3 0.4,-0.5 -0.4,0.1 -0.8,0.3 -1,0.6 -0.3,0.3 -0.7,1.2 -0.8,1.6 0,0 0,0.2 0,0.3 -0.2,1.2 0,2.1 0.4,2.9 0.3,0.5 0.6,1.1 0.9,1.3 z m 82.9,52 c 0.4,0 1.1,0 1.1,-0.5 -2.6,-0.3 -4.4,-0.5 -6.8,-0.4 -1.2,-0.3 -2.3,-0.2 -3.4,-0.3 -0.3,0 -0.7,-0.2 -1,-0.2 -0.1,0 -0.3,0 -0.4,0 -1.1,-0.1 -2.2,-0.4 -3.2,-0.7 -0.2,0 -0.7,-0.4 -0.8,-0.5 -0.1,-0.1 -0.1,-0.2 -0.2,-0.3 0,0 -0.2,0 -0.3,-0.1 -0.3,-0.3 -0.4,-0.6 -0.7,-0.9 -0.3,-0.3 -0.5,-0.5 -0.7,-0.8 -0.1,-0.3 -0.3,-0.5 -0.4,-0.8 -0.3,-0.6 -0.3,-1.3 -0.4,-2.1 -0.2,-1.3 -0.3,-2.3 -0.4,-3.6 -0.1,-1.4 -0.1,-2.7 -0.3,-4 0,-0.5 -0.2,-1.1 -0.3,-1.7 0,-0.6 0,-0.7 -0.5,-1 -0.6,0.6 -0.1,1.1 0.1,1.9 0,0.1 0,0.3 0,0.5 0,0.3 0.2,0.6 0.3,0.9 0.1,0.8 0,1.4 0,1.7 0,0.2 0.1,0.3 0.1,0.5 0,0.5 -0.1,1.1 0,1.6 0,0.3 0.2,0.5 0.2,0.8 0,0.1 -0.1,0.2 -0.1,0.3 0,0.8 0.2,1.7 0.3,2.4 0,0.6 0.4,1.2 0.3,1.8 -0.2,-0.2 -0.2,-0.1 -0.4,0 -0.3,-0.6 -0.2,-1.2 -0.2,-1.8 -0.1,-1.2 -0.3,-2.3 -0.4,-3.4 -0.1,-0.8 0.1,-1.8 0,-2.6 -0.2,-1.7 -0.8,-3.3 -1.1,-5 -0.1,-0.4 -0.5,-0.9 -0.5,-1.2 -0.3,-0.3 -0.3,-0.8 -0.7,-1.1 -0.2,0.1 -0.4,0.3 -0.5,0.5 0.4,0.4 0.7,0.8 0.9,1.3 0.6,1.5 0.8,3.6 0.9,5 0,1.1 0.2,2.1 0.3,3.3 0,1.1 0.1,2.1 0.2,3 0.1,0.6 0.3,1.3 0.4,1.9 0,0.3 0,0.5 0,0.7 0.1,1 0.9,1.3 1.3,2.2 0.2,0 0.3,0.1 0.4,0.2 0.2,0.2 0.3,0.5 0.5,0.6 0.1,0.1 0.3,0.1 0.5,0.2 0.5,0.2 0.8,0.7 1.5,0.6 1.7,1 4.3,1.4 6.4,0.9 0.5,0.3 0.9,0.1 1.4,0.2 2,0.2 3.8,0.1 5.5,0.2 0.3,-0.1 0.6,-0.2 1.1,-0.2 z m -17.6,-2.3 c 0,-0.4 -0.3,-0.5 -0.5,-0.8 -0.2,-0.3 -0.3,-0.6 -0.5,-0.8 -0.5,-0.4 -1.6,0 -2.4,-0.1 -0.3,0 -0.6,-0.2 -0.8,-0.1 -0.3,0.4 0.1,1 0.3,1.4 0.3,0.1 0.7,0.2 1.1,0.2 0.9,0.1 1.9,0.2 2.8,0.2 z M 108,90.7 c 0.1,-0.5 -0.1,-1.1 -0.2,-1.7 -0.2,-1.1 -0.3,-2.4 -0.5,-3.8 -0.2,-1.3 -0.2,-2.4 -0.3,-3.8 0,-0.4 -0.2,-0.7 -0.2,-1 0,-0.1 0.1,-0.3 0.1,-0.4 0,-0.2 -0.1,-0.5 -0.1,-0.7 -0.1,-1.4 -0.4,-2.6 -1.1,-3.6 0,0 0,0 -0.1,0 -0.4,0.4 -1.3,0.5 -1.5,1.1 -0.1,0.3 -0.2,0.8 -0.2,1.2 0,0.5 0.1,1 0.1,1.5 0,0.2 0,0.5 0,0.8 0,0.4 0.2,0.9 0.2,1.3 0,0.8 0,1.5 0.1,2.3 0,0.7 0.2,1.4 0.3,2.2 0.2,1.5 0.2,3.1 0.5,4.5 1,-0.1 2.1,0.1 2.9,0.1 z m -1.9,-66.9 c 0,-0.4 -0.2,-0.8 -0.2,-1.2 -0.1,-0.1 -0.2,-0.2 -0.3,-0.3 -0.8,0.5 -1.2,1.2 -1.3,2.3 -0.2,0.3 -0.5,0.6 -0.9,0.7 0,0.2 0,0.2 0,0.4 0.4,0 0.7,0.2 1,0.2 0.1,-0.3 -0.1,-0.5 0,-0.9 0.3,-0.1 0.3,-0.4 0.6,-0.5 -0.1,0.3 0.3,0.1 0.4,0.1 0.3,0.3 0,0.5 0.1,1 0.2,-0.5 0.6,-1.1 0.6,-1.8 z m -0.8,4.6 c 0.2,-0.6 0.1,-0.9 0.2,-1.7 -0.3,0 -0.7,0.3 -0.7,0.6 0,0.1 0.2,0.3 0.2,0.4 0.1,0.2 0.1,0.7 0.3,0.7 z m -0.2,65.4 c 0.1,-0.8 -0.3,-1.4 -0.4,-2.2 -0.1,-0.5 -0.1,-1.1 -0.2,-1.7 -0.3,-1.8 -0.4,-3.4 -0.5,-5 0,-0.5 -0.2,-1.1 -0.3,-1.7 0,-0.7 -0.2,-1.3 -0.3,-1.9 0,-0.2 0,-0.3 0,-0.5 0,-0.3 -0.2,-0.8 -0.2,-1.1 -0.1,-0.4 0,-0.8 -0.1,-1.2 -0.1,-0.4 -0.4,-0.6 -0.5,-0.9 -0.1,-0.6 0.5,-1.3 0.6,-1.8 0.2,-0.3 0.9,-0.8 0.8,-1.2 0,-0.2 -0.5,-0.3 -0.6,-0.5 0,-0.1 -0.1,-0.2 -0.1,-0.3 -0.1,-0.5 -0.1,-1.2 -0.6,-1.4 -0.5,0.1 -1,-0.1 -1.2,0.3 0,0.6 0.9,0.9 0.5,1.6 -0.5,-0.1 -0.5,-0.6 -1,-0.6 0.3,0.8 1,1.4 0.7,2.4 -0.1,0 -0.3,-0.1 -0.5,-0.1 0,-0.4 -0.3,-0.5 -0.5,-0.7 0,-0.4 -0.3,-0.5 -0.2,-0.9 -0.2,-0.5 -0.6,-0.8 -0.8,-1.3 0,-0.1 0,-0.3 0,-0.4 -0.1,-0.4 -0.3,-0.8 -0.5,-1.2 -0.3,-1 -0.5,-2.2 -0.5,-3.1 0,-0.4 0,-0.9 0.3,-1.2 0.2,0 0.3,0.5 0.5,0.4 0.3,-0.6 0.3,-1.5 0.3,-2 0.1,-0.2 0.3,-0.5 0.2,-0.8 0.6,-1.4 1.7,-2.3 2.6,-3.4 0,0 -0.1,0 -0.1,0 0,0 -0.1,0 -0.1,0.1 -0.6,0.2 -1,0.6 -1.4,1 -0.3,0.3 -0.7,0.5 -0.9,0.8 -0.2,0.3 -0.4,0.8 -0.6,1.1 -0.4,0.8 -0.8,1.4 -1,2.2 0,0.5 -0.2,0.9 -0.3,1.3 -0.2,1.6 0.1,2.9 0.4,4.2 0.1,0.4 0.2,0.6 0.2,0.8 0,0.2 0,0.3 0,0.4 0,0.3 0.3,0.5 0.3,0.8 0,0.2 0,0.4 0,0.6 0,0.1 0.2,0.3 0.2,0.4 0,0.2 0,0.4 0.1,0.6 0,0.2 0.2,0.4 0.2,0.6 0,0.4 0,0.8 0.1,1.2 0.1,0.5 0.3,1 0.4,1.5 0.1,0.6 0.3,1.3 0.2,1.9 0.1,0.3 0.1,0.5 0.2,0.7 0,0.2 -0.1,0.2 -0.1,0.3 0,1 0.3,1.6 0.4,2.3 0,0.2 0,0.5 0,0.7 0,0.5 0.1,1 0.1,1.3 0,0.1 0,0.3 0,0.4 0,1.6 0.4,3.7 0.4,5.4 -0.2,0.2 -0.5,0.4 -0.8,0.5 -0.5,0.1 -1.1,0 -1.6,0.1 -0.3,0 -0.6,0.2 -0.9,0.3 -1.1,0.2 -2.2,-0.1 -3.1,0.3 -1,-0.4 -1.8,0.3 -3,0.1 -0.2,0.2 -0.6,0.2 -0.6,0.5 0,0.3 0.6,0.3 0.7,0.7 0,0.2 -0.3,0.1 -0.3,0.3 0.1,0.3 0.5,0.2 0.7,0.1 0.3,0 0.7,0 1,-0.1 0.3,0 0.7,0 0.9,0 0.3,-0.1 0.4,-0.5 0.7,-0.5 0.3,0.1 0.5,-0.1 0.9,-0.1 0.1,0 0.3,0.1 0.4,0.1 0.2,0 0.4,-0.1 0.6,-0.1 1.1,0 2.2,-0.1 3.4,-0.1 0.8,0 1.6,0 2.3,-0.2 0.3,-0.7 0.2,-1.4 0.2,-2.2 0,-0.5 0,-1.1 0,-1.6 0,-0.7 0.2,-1.5 0.1,-2.3 0,-0.6 -0.3,-1.1 -0.2,-1.5 0,0.3 0.2,0.5 0.3,0.8 0.1,0.3 0,0.7 0,1 0,0.3 0.2,0.6 0.2,1 0.1,0.9 0,2.3 0.2,3.1 0.1,0.4 0.3,0.7 0.2,1 -0.1,0.5 -0.6,0.8 -0.8,1.2 0.2,0.2 0.8,0.3 1.2,0.2 0.5,0 0.6,-0.3 0.7,-0.7 0.2,-0.2 0.3,0 0.4,-0.1 z m -0.5,-45.7 c 0.1,-0.9 0.3,-1.7 0.1,-2.4 -0.7,0.5 -0.5,1.5 -0.7,2.2 -0.5,0.1 -1.3,0.4 -1.7,0.5 -0.9,0.1 -2,-0.1 -2.9,0 -0.5,0 -1,0.4 -1.4,0 1.3,-0.4 3,-0.3 3.9,-1.1 -0.1,-0.8 0.3,-1.1 0.5,-1.6 0.3,-1.3 -0.6,-1.4 -0.8,-2.2 -0.1,-0.4 0,-0.9 -0.3,-1.2 0,0 -0.1,0 -0.1,0 -0.2,0.5 0,1.4 -0.1,2.2 0,0.3 -0.1,0.6 -0.2,0.9 0,0.3 0.1,0.6 0,0.9 -0.1,0.4 -0.7,0.6 -1.1,0.8 -0.4,0 -0.7,0.2 -1.1,0.3 -0.4,0.1 -0.9,0 -1.3,0.2 -0.8,0.2 -1.4,0.4 -2,0.5 -0.3,0 -0.5,0 -0.8,0 -0.6,0 -1.1,0.2 -1.6,0.1 -0.7,-0.1 -0.9,-0.8 -1.7,-0.7 0.1,0.4 0.6,0.4 0.8,0.7 -0.2,0.1 -0.2,0.1 -0.3,0.3 -0.6,0 -0.7,-0.3 -1.3,-0.3 0.1,0.5 0.7,0.5 1.3,0.5 0,0.2 0.2,0.3 0.2,0.4 -0.7,0 -1,0.5 -1.3,1 0.5,0.3 0.8,-0.2 1.3,-0.3 0.1,0.1 0.3,0.1 0.5,0.1 0.1,-0.1 0.2,-0.1 0.3,-0.2 1.1,-0.2 2.3,0.1 3.4,0.1 0.5,0 1,-0.1 1.4,-0.1 0.8,0 1.6,0.1 2.4,-0.1 0.7,0 1.6,0.2 2.1,0.1 0.1,0 0.2,-0.1 0.3,-0.1 0.5,-0.1 1.1,0.1 1.5,-0.1 0.4,-0.3 0.6,-0.9 0.7,-1.4 z m -1.2,-19.6 c 0.1,-0.4 -0.4,-0.3 -0.6,-0.5 -0.1,-0.1 0,-0.1 -0.1,-0.2 -0.3,-0.1 -0.5,-0.1 -0.7,0.1 0,0.5 -0.6,0.5 -0.6,0.8 0,0.1 0.3,0.1 0.3,0.3 -0.3,0.5 -1.4,0.6 -1.9,0.9 -0.2,0.1 -0.3,0.4 -0.5,0.2 0,-0.6 0.6,-0.6 0.7,-1.1 -0.8,0.1 -1.2,0.9 -1.9,0.8 -0.2,0.3 -0.5,0.3 -0.8,0.5 0.2,0.7 1.2,0 1.4,0.6 -0.2,0.2 -0.3,0.4 -0.5,0.5 -0.2,-0.2 -0.9,-0.4 -0.9,0.1 0.5,0.3 1,0.1 1.5,0.3 0.3,0.7 1.1,0.3 1.8,0.1 0,-0.3 -0.1,-0.5 -0.2,-0.8 -0.2,-0.1 -0.3,-0.1 -0.3,-0.3 -0.3,-0.8 0.7,-1.1 1.2,-1.3 0.5,-0.2 1.1,-0.1 1.5,-0.3 0,-0.2 0.2,-0.4 0.1,-0.6 -0.2,-0.1 -0.5,0.1 -0.5,-0.3 0.1,-0.1 0.3,-0.3 0.5,-0.3 0.2,0 0,0.2 0.1,0.2 0.1,0.4 0.3,0.4 0.4,0.3 z m -0.2,-1 c 0.3,0 0.3,-0.3 0,-0.3 0,0.1 -0.1,0.3 0,0.3 z M 102,30 c -0.1,0.2 0.3,0.2 0.2,0 -0.1,-0.1 -0.1,-0.1 -0.2,0 z m -0.2,28.7 c 0.2,-0.6 0.8,-2.2 0.3,-2.7 -0.4,0.2 -0.7,0.6 -1.1,0.9 -0.1,-0.1 -0.2,0 -0.4,-0.1 0,-0.2 0.1,-0.2 0.1,-0.4 -0.2,0 -0.4,0.3 -0.6,0 0.1,-0.7 0.1,-1.1 0.3,-1.8 -0.1,-0.2 -0.3,0 -0.3,-0.1 0.4,-0.3 0.5,-1 0.5,-1.5 0.1,-0.5 0.4,-0.8 0.2,-1.1 -0.4,-0.2 -0.7,0.1 -1,-0.2 0,-0.3 -0.1,-0.5 -0.1,-0.8 -0.1,0 -0.3,0 -0.4,-0.2 0,-0.4 -0.3,-0.3 -0.3,-0.6 -0.7,0 -1.7,0.2 -2.7,0.1 0,1 0.1,2 0.2,2.9 0.2,1.5 0.1,2.9 0.4,4.1 0.4,1.5 0.9,2.7 1.2,4.1 -0.4,-0.1 -0.4,-0.6 -0.8,-0.8 -0.2,0.1 -0.4,0.2 -0.6,0.3 -0.1,0.5 -0.5,0.9 -0.5,1.3 -0.3,0.3 -0.4,0.8 -0.5,1.2 -0.4,1.8 -0.5,4 -0.3,5.4 0.2,0.9 0.5,1.7 0.8,2.5 0.1,0.4 0.3,0.9 0.5,1.3 0.2,0.4 0.5,0.8 0.6,1.2 0,0.1 0,0.3 0,0.4 0,0.3 0.1,0.5 0.2,0.8 0,0.3 0.1,0.7 0.1,1.1 0,0.5 0,1.1 0.1,1.5 0,0.1 0.1,0.3 0.1,0.4 0,0.5 0,0.9 0,1.3 0,0.2 0.1,0.3 0.2,0.5 0.1,0.4 0,0.8 0,1.2 0.1,1.1 0.5,2.2 0.4,3.4 0.3,0.6 0,1.2 0.1,1.9 0.1,0.7 0.3,1.2 0.2,1.7 -0.2,0.8 -0.9,1.1 -1.5,1.2 -0.8,0.3 -1.8,0.4 -2.8,0.3 -0.2,0.2 -0.5,0.1 -0.7,0.1 -0.5,0 -1.1,0.3 -1.7,0.3 -0.5,0.1 -1,0 -1.6,0.1 -0.1,0 -0.3,0.1 -0.4,0.2 -0.2,0.1 -0.5,-0.1 -0.7,-0.1 -0.4,0 -0.7,0.1 -1.1,0.1 0.1,0.4 -0.1,0.9 0.2,1.2 1.4,-0.1 3.2,-0.3 4.8,-0.2 0.3,-0.3 1.3,0.1 1.5,-0.7 1.4,-0.4 2.9,-0.1 4.3,-0.5 0.1,0 0.1,0.1 0.2,0.1 0,-0.4 0.3,-0.8 0.4,-1.2 0.2,-0.9 0,-2.2 -0.1,-2.9 0,-0.7 -0.3,-1.4 -0.3,-2.1 -0.1,-1 0.1,-1.9 -0.3,-2.7 0.3,-1.9 -0.5,-3.7 -0.4,-5.4 0.3,0.4 0.2,1.3 0.7,1.5 0.2,-0.9 -0.3,-1.8 -0.6,-2.8 -0.2,-0.8 -0.3,-1.4 -0.5,-2.2 -0.2,-0.6 -0.3,-1.3 -0.5,-1.9 -0.3,-1.5 0.1,-2.7 0.3,-4.3 0.2,-0.3 0.3,-0.6 0.5,-1 0.2,-0.3 0.4,-0.6 0.5,-1 0.1,-0.2 0,-0.3 0.1,-0.5 0.5,-1.4 1.5,-2.4 2.4,-3.4 -0.3,-0.5 0.2,-0.9 0.4,-1.4 z m 0.3,-33.4 c 0.2,-0.7 -0.7,-1.4 -0.8,-2.2 0,-0.1 0,-0.3 0,-0.5 -0.1,-0.3 -0.5,-1 -0.6,-1.2 -0.3,0.5 0.2,1.1 0.5,1.6 0.1,0.9 0,2.1 0.9,2.3 -0.1,0 -0.1,-0.1 0,0 z m -0.8,7.5 c 0.3,-0.3 0.8,-0.4 0.7,-1 -0.3,-0.2 -0.7,-0.7 -1,-0.3 -0.1,0.3 0.2,0.5 0.1,0.6 -0.2,0.3 -0.6,0.4 -0.9,0.6 -0.2,1.9 -0.6,3.4 -1.6,4.6 -0.4,0.5 -0.7,1.1 -1,1.4 -0.4,0.5 -1.1,0.8 -1.3,1.5 -0.3,0.1 -0.4,0.3 -0.6,0.5 0.1,0.6 -0.5,1.2 -0.6,2 0,0.3 0.1,0.6 0.1,1 0.1,0.6 0,1.4 0,2 0,0.1 0.1,0.2 0.1,0.3 0.1,0.5 0,1.1 0.3,1.4 1.1,-0.1 2.3,-0.2 2.8,-0.8 0,-0.2 0,-0.2 0,-0.3 0.3,-0.6 0.3,-1.3 0.6,-1.9 0.1,0.1 0,0.4 0.1,0.5 0.3,-0.1 0.5,-0.1 0.8,-0.1 0.3,-0.3 0.1,-0.8 0.2,-1.2 0,-0.1 0.2,-0.3 0.3,-0.4 0.1,-0.4 0,-0.9 0,-1.3 0,-0.2 0.2,-0.3 0.2,-0.5 0,-0.3 -0.2,-0.5 0,-0.8 -0.3,-0.6 0.3,-1.1 0.3,-1.8 0,-0.2 -0.2,-0.5 -0.1,-0.7 0,-0.2 0.1,-0.5 0.2,-0.8 0.1,-0.3 0.3,-0.6 0.3,-0.8 0,-0.2 -0.3,-0.3 -0.4,-0.5 -0.2,-0.7 0.8,-1 0.8,-1.6 -0.5,-0.1 -0.5,0.7 -1.1,0.6 -0.1,-0.1 -0.2,-0.1 -0.2,-0.2 0.4,-0.6 1.4,-1.1 0.9,-2 z M 101,26.3 c 0.2,0 0.2,-0.1 0.3,-0.2 -0.1,-0.6 -0.3,-1.1 -0.8,-1.2 0,0.5 0.1,1.1 0.5,1.4 z m -0.2,0.7 c 0.1,0 0.3,0 0.3,-0.1 0,-0.1 -0.1,-0.1 -0.3,-0.1 0,0.1 0,0.2 0,0.2 z m -1.6,63.6 c 0.1,0.2 0.8,0.2 0.8,0 -0.2,-0.2 -0.8,-0.2 -0.8,0 z m 0.5,-63.1 c -0.5,-0.3 -0.7,0.3 -0.5,0.8 0,0 0.1,0 0.1,0 0.2,-0.1 0.3,-0.4 0.4,-0.8 z m -4.6,19.8 c 0.1,-0.4 0,-0.4 0,-0.8 -0.7,-0.2 -1,-0.6 -1.8,-0.7 -0.3,0.4 -0.5,0.9 -0.8,1.4 0.7,0.5 1.8,0.5 2.6,0.1 z m -0.2,-1.6 c 0,-0.7 -0.1,-1.3 -0.1,-2.1 -0.5,0.4 -0.7,1.2 -1.1,1.7 0.5,0.1 0.9,0.3 1.2,0.4 z m -1.5,-6.2 c 0.1,0.4 0,1.1 -0.2,1.5 0,0.4 0,0.7 -0.2,0.9 0.1,0.1 -0.2,0.7 -0.1,0.8 0.6,-0.9 1,-2.1 1,-3.4 -0.6,-0.9 -1.1,-1.7 -2.2,-2.3 0.5,0.9 1.5,1.5 1.7,2.5 z m -2.1,4.6 C 91.5,44 91.6,43.7 91.5,43.4 91,43.2 90.8,43 90.2,42.9 90.1,43 90,43.3 90,43.5 c 0.2,0.4 0.8,0.4 1.3,0.6 z m -0.8,2.1 c 0.2,-0.5 0.6,-1.1 0.5,-1.5 -0.1,-0.3 -0.7,-0.6 -1.1,-0.4 0.1,0.8 -0.5,2.5 0.3,2.6 0.3,-0.2 0.2,-0.4 0.3,-0.7 z m -0.9,3.5 c 0.8,0.2 1.4,-0.8 0.5,-0.7 -0.1,0.3 -0.3,0.4 -0.5,0.5 0,0 0,0.1 0,0.2 z m -0.7,-1.4 c 0.4,0.2 1.4,0.5 1.5,0 -0.5,-0.1 -0.8,-0.1 -1.4,-0.2 0,0.1 -0.2,0.1 -0.1,0.2 z m 1.1,2.2 c -0.3,-0.2 -1.1,0 -1,0.5 0.1,0 0.1,0.1 0.3,0.1 0.2,-0.1 0.4,-0.4 0.7,-0.6 z m -0.9,3.8 c 0,-0.9 0.3,-1.6 0,-2.4 -0.3,-0.1 -0.3,-0.1 -0.5,0 -0.2,-0.2 -0.2,-0.4 -0.4,-0.5 0,-0.5 -0.1,-1.1 0.1,-1.6 -0.4,-0.1 -0.6,-0.3 -0.6,-0.7 0.3,-0.3 0.4,-0.8 0.2,-1.3 0.2,-0.3 0.7,-0.3 1.2,-0.3 0.2,-0.4 0.1,-0.8 0.1,-1.3 0,-0.6 0.2,-1.4 0,-1.9 -0.1,-0.2 -0.4,-0.3 -0.5,-0.5 -0.1,-0.1 -0.1,-0.3 -0.3,-0.5 -0.2,-0.3 -0.6,-0.4 -0.8,-0.6 -0.7,0.5 -1.4,-0.3 -1.9,-0.1 0,0 -0.2,0.1 -0.2,0.1 -0.1,0.1 0,0.3 -0.2,0.4 -0.3,0 -0.3,-0.2 -0.5,-0.3 -0.5,-0.2 -1.4,-0.1 -1.9,-0.1 -1.1,0 -2.2,0 -3,0 -3,0 -7.5,-0.1 -11.4,-0.3 -3.2,-0.1 -6.3,0 -9.4,0 -2.2,0 -4.9,-0.1 -7.1,0 -0.2,-0.5 -0.7,-0.1 -1,0 -0.5,-0.2 -1.9,-0.3 -2.4,0 -0.4,0.2 -0.2,1.1 -0.3,1.7 0,0.2 -0.1,0.3 -0.1,0.5 -0.1,0.7 -0.1,1.4 -0.1,2.5 0.3,0.3 0.6,0.4 0.9,0.7 0.2,0.4 0.3,0.7 0.2,1.1 0,0.4 -0.3,0.7 -0.3,1 0,0.2 0.3,0.4 0.3,0.6 0,0.3 -0.3,0.5 -0.3,0.8 -0.2,0.2 -0.5,0.2 -0.7,0.3 0,0 0,0.1 0,0.2 0,0.1 -0.1,0 -0.2,0 -0.1,0.1 -0.2,0.8 -0.2,1.1 -0.1,0.8 0,1.7 -0.1,2.6 -0.3,2.2 -0.3,4.6 -0.2,6.8 0.3,4.3 0.9,8.1 2.6,11.5 0.5,0.3 1,-0.2 1.4,-0.5 0.5,-0.3 1.3,-0.7 2,-0.8 0.6,-0.1 1.6,0 1.8,-0.3 0.1,-0.1 0.1,-0.5 0.2,-0.7 0.1,-0.6 0.3,-1.2 0.5,-1.8 0.1,-0.3 0.2,-0.7 0.3,-1 0.1,-0.2 0.2,-0.3 0.3,-0.5 0.1,-0.4 0.2,-0.8 0.4,-1.3 0.6,-1.4 1.1,-2.8 1.7,-4.2 0.6,-1.2 0.9,-2.6 1.3,-3.8 0.6,-1.6 1.1,-2.9 1.6,-4.6 0.3,-1.1 0.9,-2.2 0.8,-3.2 0,-0.5 -0.3,-1.1 -0.7,-1.1 -0.2,0 -0.4,0.2 -0.6,0.3 -0.8,0.2 -1.8,-0.3 -2.8,-0.2 -0.4,0.2 -1.3,0.4 -1.7,0.3 0.1,-0.8 0.9,-0.8 1.4,-1.2 0.1,-0.5 0.6,-0.7 0.9,-0.9 0.5,-0.4 0.7,-1 1.2,-1.4 0.4,-0.3 1,-0.6 1.6,-0.7 0.4,0 1.1,0.1 1.5,0.3 0.4,0.2 0.7,0.7 0.8,1 1.4,3.6 -0.7,7.6 -1.5,11 -0.1,0.1 -0.1,0.3 -0.2,0.3 0,0.3 -0.1,0.5 -0.2,0.6 -0.3,0.9 -0.4,1.9 -0.8,2.8 -0.3,1 -0.7,2.4 -0.9,3.3 -0.3,1.1 -0.4,2.3 -0.5,3.2 0,0.5 -0.2,1 -0.1,1.3 0.1,0.5 0.5,1.1 1,1.1 0.6,0.1 1.1,-0.5 1.7,-0.6 1.4,-1.3 2.8,-2.6 3.9,-4.3 0.5,-0.5 1,-1 1.6,-1.5 0.7,-0.5 1.5,-1 2.4,-1.4 0.2,-0.1 0.5,-0.1 0.7,-0.2 0.5,-0.3 0.8,-0.7 1.3,-1 0.4,0.2 0.4,0.9 0.8,1 0.7,0.2 1.2,-1.1 1.5,-1.3 0.5,0.2 0.7,0.8 1.1,1.2 0.4,-0.1 0.5,-0.4 0.8,-0.6 0.3,0.4 0.6,0.8 0.8,1.4 0,0.3 -0.1,0.6 0.3,0.8 0.4,0 0.4,-0.4 0.8,-0.5 0.2,0.6 0.6,1.2 0.3,1.8 0.3,0 0.6,0.3 1,0.3 0.4,0 0.5,-0.5 0.9,-0.6 0.4,0.2 0.4,0.9 0.8,1.1 0.2,-0.1 0.3,-0.3 0.5,-0.4 0.5,0.2 0.5,0.9 0.8,1.3 0.3,0.1 0.3,-0.3 0.6,-0.3 0.1,0.9 1.1,0.5 1.6,0.5 0.5,1.1 -0.1,2.3 -1,2.9 0.1,0.5 -0.2,0.8 -0.2,1.3 -0.1,0.2 -0.5,0.5 -0.5,0.7 0.6,0.3 1.6,0.4 2.4,0.7 0.2,0.1 0.8,0.7 1.1,0.6 0.3,-0.1 0.3,-0.6 0.5,-1.1 0.1,-0.5 0.3,-0.8 0.4,-1.1 0.1,-0.6 0.1,-1.3 0.3,-1.9 0.2,-1.2 0.5,-2.4 0.7,-3.5 0.1,-0.6 0.1,-1.2 0.1,-1.8 0,-0.8 0.3,-1.5 0.4,-2.4 0.1,-0.7 0,-1.5 0,-2.2 0.1,-1.5 0.2,-3.1 0.3,-4.5 -0.3,-0.4 -0.4,-0.8 -0.4,-1.2 z m -0.7,-12 c 0.1,-0.1 0.2,-0.2 0.2,-0.4 -0.6,-0.6 -1,0.3 -0.2,0.4 z m -6.3,31 c 0.7,-0.2 2.1,0.5 2.9,0.3 -0.6,-0.5 -1.3,-0.3 -1.9,-0.8 -0.5,-0.1 -1.1,0.2 -1.6,0.3 -0.4,0.1 -0.9,0.1 -1.3,0.2 -0.3,0 -0.5,0.3 -0.8,0.3 -0.1,0 -0.2,-0.1 -0.3,0 -0.8,0.1 -1.5,0.4 -2.2,0.5 -1,0.1 -2.2,-0.2 -2.5,0.2 2.1,0.6 4.3,0 6.2,-0.5 0.3,-0.1 0.6,-0.1 0.8,-0.2 0.2,-0.1 0.5,-0.3 0.7,-0.3 z m 1.6,7.2 c 0.3,-0.4 0.9,-1.3 0.7,-1.7 -0.1,-0.3 -0.8,-0.5 -1.2,-0.6 -0.5,-0.2 -1.1,-0.3 -1.5,-0.4 -1.6,-0.4 -2.2,-0.6 -3.8,-0.4 -0.6,0.1 -1.2,0.3 -1.8,0.5 -0.3,0.1 -0.6,0 -1,0 -0.5,0 -1.1,0.2 -1.4,0.1 -0.5,0 -1,-0.2 -1.3,-0.3 -0.5,-0.1 -1,-0.3 -1.6,-0.4 -1.3,-0.2 -2.6,-0.3 -3.7,-0.2 -2.4,0.2 -4.6,1.1 -7,0.6 -0.5,-0.1 -0.9,0 -1.3,-0.2 -1.3,-0.3 -2.6,-0.8 -4.1,-0.6 -0.5,0.2 -2.3,0.1 -2.5,0.8 -0.1,0.3 0.4,1 0.6,1.4 0.2,0.3 0.6,0.6 0.8,0.9 0.3,0.4 0.4,1 0.8,1.2 0.7,-0.3 1.3,-0.6 2.1,-0.6 1.5,0.1 3,0.9 4.5,1.1 1.3,0.1 2.5,-0.4 3.3,-0.6 2.1,-0.5 4.3,-0.6 6.8,0 1.1,0.3 1.8,0.5 2.7,0.5 0.3,0 0.7,0 1.2,-0.1 0.6,-0.1 1.3,-0.4 1.9,-0.5 1,-0.2 3.1,-0.3 4.1,0.1 0.4,0.1 1.1,0.9 1.6,0.8 0.2,-0.1 0.4,-0.5 0.5,-0.7 0.3,-0.2 0.5,-0.5 0.6,-0.7 z M 83.5,69 c 0.2,-0.3 0.3,-0.5 0.5,-0.8 -0.3,-0.2 -0.8,0.4 -0.8,0.7 0.2,0 0.1,0.1 0.3,0.1 z m -0.1,0.6 c 0,0 -0.1,-0.1 -0.2,-0.1 -0.3,0.4 -0.4,0.8 -0.7,1.3 0.5,-0.1 0.7,-0.6 0.9,-1.2 z m -1.5,-0.2 c 0.2,0 1,-0.9 0.9,-1.2 0,-0.1 -0.2,-0.2 -0.3,-0.2 -0.2,0.4 -0.7,0.9 -0.6,1.4 z m -0.2,-1.9 c -0.9,-0.3 -0.3,1.1 -0.5,1.5 0.5,-0.2 0.3,-0.9 0.5,-1.5 z m -1.9,3.8 c 0.3,-0.5 0.7,-1 0.5,-1.5 -0.2,0 -0.2,0.2 -0.3,0.1 -0.1,0.6 -0.2,0.9 -0.2,1.4 z m -0.4,-3.5 c 0.5,0.2 0.7,-0.8 0.4,-1 -0.6,-0.1 -0.2,0.7 -0.4,1 z m 0,1.8 c -0.2,-0.4 -0.6,-0.1 -0.6,0.3 -0.2,0 -0.2,-0.1 -0.3,0 -0.2,0.8 0.8,0.8 0.6,0 0,-0.2 0.3,-0.1 0.3,-0.3 z m -0.2,3.7 c 0.7,-1.1 -1.4,-1.7 -1.8,-0.8 0.1,0.2 0.6,0.1 0.8,0.1 0.2,0.2 0,0.5 0.1,0.7 0.1,0.2 0.6,0.1 0.9,0 z m -0.7,-5.2 c 0.4,-0.3 0.7,-1.1 0,-1.2 0,0.4 -0.2,0.9 0,1.2 z m 0.2,3 c -0.1,-0.3 -0.5,-0.3 -0.8,-0.4 -0.3,0 -0.6,0 -0.8,0.1 0,-0.1 -0.1,-0.1 -0.3,-0.1 -0.5,0.4 -1.2,0.1 -1.6,0 -1,-0.1 -1.3,0.6 -2.1,0.8 -0.3,0.1 -0.8,0.2 -1.2,0.1 -0.2,0 -0.4,-0.3 -0.7,-0.1 0,-0.2 -0.5,-0.1 -0.5,0.2 0.6,0.4 1.6,0.5 2.4,0.1 0.4,0.3 0.8,0.4 1.3,0.4 0,-0.3 -0.4,-0.4 -0.2,-0.7 0.5,0.3 1.1,0.5 1.6,0.4 -0.1,-0.4 -0.6,-0.3 -0.6,-0.7 1.1,0.3 2.6,0.5 3.5,-0.1 z M 77,68.3 c 0.7,0.4 0.7,-1.4 0.1,-1 0,0.3 0,0.8 -0.1,1 z m -1.2,-1.4 c 0.9,0.1 0.8,-1.1 0.1,-1.1 -0.1,0.3 -0.2,0.7 -0.1,1.1 z m 0.3,-3.1 c -0.4,-0.4 -1.3,0.5 -0.9,1.1 0.6,-0.1 0.8,-0.7 0.9,-1.1 z m -0.2,4.4 c 0.3,-0.3 -0.1,-1.1 -0.5,-0.9 0.2,0.2 0,0.8 0.5,0.9 z m -1.2,-4.7 c 0.3,-0.2 0.2,-0.7 0.2,-1 -0.5,-0.1 -0.7,0.8 -0.2,1 z m 0,2.1 c 0.2,0 0.3,-0.1 0.4,-0.1 0,-0.7 -0.4,-0.9 -0.2,-1.6 -0.9,0 -1.5,0.8 -2.3,0.9 -0.3,0 -0.7,0 -1.1,0 -0.5,0.3 -1.1,0.2 -1.5,0.5 -1.2,0.7 -2,1.7 -3.1,2.6 -0.8,0.8 -1.9,1.5 -2.7,2.4 0.5,0.1 0.8,0 1.1,-0.2 0.2,-0.4 0.4,-0.9 0.8,-1.1 0.2,-0.1 0.5,-0.1 0.7,-0.3 0,-0.1 0,-0.3 0,-0.4 0.4,0 0.6,-0.1 0.8,-0.4 -0.1,0 -0.1,-0.1 -0.1,-0.3 0.1,-0.1 0.3,0 0.5,0 0.2,-0.1 0.2,-0.4 0.4,-0.5 0.2,0.1 0.3,0.4 0.5,0.3 0.4,-0.1 0.1,-0.6 0,-0.9 0.4,0.1 0.7,-0.3 1,-0.3 0.2,0 0.2,0.2 0.4,0.3 0,-0.1 0.1,-0.1 0.2,-0.2 0,-0.3 -0.2,-0.5 -0.3,-0.7 0.3,-0.1 0.4,-0.3 0.7,-0.2 0,0 0,0.1 0.1,0.2 0.1,0 0.3,0 0.3,0 0.3,0.2 0.3,0.5 0.5,0.5 0.2,0 0.3,-0.3 0.3,-0.6 -0.1,-0.1 -0.2,-0.1 -0.3,-0.3 0.6,-0.2 1.2,-0.2 1.4,0.4 0.2,0 0.3,-0.1 0.4,-0.2 0,-0.3 -0.3,-0.3 -0.3,-0.6 0.2,-0.1 0.4,0 0.6,0 0.3,-0.1 0.2,-0.5 0.6,-0.5 0,0 0,0 0,0 0,0.2 -0.2,0.3 -0.3,0.5 0.4,0.2 0.3,0.6 0.5,0.8 z m -0.4,1.6 c 1,0.2 0.4,-1.7 -0.3,-1 0.4,0.2 0.2,0.5 0.3,1 z m -0.1,1.5 c 0.5,-0.2 0,-1.2 -0.5,-1.1 0.3,0.3 0.3,0.7 0.5,1.1 z m -1.4,-1 c 0.7,0.2 0.8,-1.3 0,-1.2 0,0.3 0,0.8 0,1.2 z m -0.1,0.9 c 0.3,-0.3 -0.1,-0.9 -0.4,-0.5 0.1,0.3 0.2,0.5 0.4,0.5 z m -0.2,-5.4 c -0.1,0 -0.1,0 -0.1,0 -0.1,0.3 -0.4,0.6 -0.2,0.9 0.3,-0.2 0.2,-0.5 0.3,-0.9 z m -2.3,10.2 c 0.3,0.2 1.1,0.3 1.6,0.3 C 71.6,73.5 71.3,73.4 71.1,73.3 70.7,73.1 70.3,73 69.9,73 68.4,72.3 67,72.7 65.2,73 c -0.5,0.1 -1.1,0.3 -1.6,0.4 -0.3,0 -0.5,0 -0.7,0 -1.3,0 -2.3,-0.1 -3.5,-0.3 -0.4,0 -0.8,-0.3 -1.2,-0.3 -0.6,-0.1 -1.2,-0.1 -1.7,-0.1 -0.4,0 -0.8,0.2 -1.1,0.4 1,0.1 1.9,0.2 2.8,0.4 1.2,0.3 2.4,0.8 3.8,0.8 2.9,-0.2 5.4,-1.5 8.2,-0.9 z m 1.3,-5.3 c 0.8,-0.1 0.3,-1.5 -0.3,-1.3 0,0 0,0.1 0,0.1 0.4,0.4 0.1,0.7 0.3,1.2 z m -0.9,-3.5 c 0.3,-0.1 0.7,-0.7 0.5,-1.1 0,0 -0.1,0 -0.1,0 -0.1,0.5 -0.5,0.7 -0.4,1.1 z m -0.7,3.9 c 0.6,0 0.5,-0.6 0.3,-0.9 -0.5,-0.1 -0.4,0.7 -0.3,0.9 z M 70,64.6 c 0.3,-0.6 -0.4,-0.4 -0.5,-0.1 0,0.3 0.3,0.3 0.5,0.1 z m -0.2,5 c 0.5,-0.1 0.3,-0.9 -0.2,-0.7 0,0.3 0.1,0.5 0.2,0.7 z m -1.1,-1.1 c -0.3,0.3 0.2,0.8 0.4,0.4 C 69,68.7 69,68.4 68.7,68.5 Z m -0.1,2 c 0.4,-0.4 0.1,-0.8 0,-1.3 C 68.5,69 68.3,69 68,68.9 c 0,0.2 0,0.7 0.2,0.8 0.2,0 -0.1,-0.3 0.1,-0.3 0.2,0.3 0.1,0.8 0.3,1.1 z m -0.1,-5.1 c -0.1,-0.2 0,-0.4 -0.2,-0.5 -0.2,0.1 -0.5,0.5 -0.2,0.8 0.2,-0.1 0.3,-0.2 0.4,-0.3 z m -1.6,0.9 c 0.6,0.2 0.5,-0.5 0.3,-0.8 -0.1,0 0,0.2 0,0.3 -0.2,0 -0.3,0.1 -0.3,0.3 0,0.1 0,0.1 0,0.2 z m -0.3,1.2 c -0.1,-0.1 0.1,-0.2 0.1,-0.3 -0.1,0 -0.1,-0.3 -0.3,-0.3 -0.1,0.1 -0.1,0.5 -0.3,0.6 0.1,0.1 0.1,0.3 0.3,0.3 0,-0.2 0.1,-0.3 0.2,-0.3 z m -1.3,0.7 c 0,0.3 0.5,0.4 0.5,0 -0.1,0 -0.1,-0.1 -0.2,-0.2 0,0.1 -0.2,0.1 -0.3,0.2 z M 61,48.1 c 0.1,-0.2 0.3,-0.3 0.3,-0.5 0,-0.7 -1.1,-0.7 -1.1,0 0,0.2 0.1,0.2 0.3,0.5 0.2,-0.1 0.3,0 0.5,0 z m -2.8,1.5 c 0.3,0 0.4,-0.5 0.3,-0.8 -0.4,0.2 -0.5,0.3 -0.5,0.7 0.1,0 0.2,0 0.2,0.1 z m -3.3,23.2 c 0.1,-0.1 0.3,0 0.3,-0.2 -1.1,-0.1 -1.9,0.2 -2.9,0.6 0.5,0.2 1.2,0 1.7,-0.3 0.3,0.1 0.7,-0.1 0.9,-0.1 z M 50.1,41.7 c 0,-0.2 0.2,-0.3 0.1,-0.6 -0.1,0 -0.1,-0.1 -0.2,-0.1 -0.4,0.4 -0.8,-0.2 -1,0.4 0.5,0 0.6,0.3 1.1,0.3 z m -1.6,7.1 c 0.1,0 0.1,-0.1 0.2,-0.1 -0.1,-0.3 -0.2,-0.4 -0.5,-0.5 -0.1,0.2 0,0.5 0.3,0.6 z m -0.3,41.5 c 0,-0.2 0,-0.3 0,-0.5 C 47.7,89.2 47,89.2 46.3,89.2 45.9,89.2 45.4,89.1 45,89 43.3,88.7 41.5,88.6 40,88.3 39.5,88.2 39.1,88 38.7,87.9 38.1,87.5 37.9,87 38,86.1 c 0.1,-0.9 0.2,-1.8 0.3,-2.3 0,-0.3 0,-0.6 0,-0.9 0.1,-1 0.3,-2 0.4,-2.9 0,-0.3 0.1,-0.6 0.1,-0.8 0,-0.4 -0.1,-0.7 0,-1 0.1,-1.3 0.3,-2.4 0.3,-3.8 C 39,74.2 39,74.1 39,74 c 0.1,-0.7 0.3,-1.1 0.5,-1.7 0.8,-1.8 1.5,-3.5 1.6,-5.6 0,-0.8 0,-1.4 0,-2 0,-0.6 -0.1,-1 -0.2,-1.5 0,-0.2 0.1,-0.4 0,-0.5 0,-0.2 -0.2,-0.3 -0.2,-0.5 -0.2,-0.7 -0.2,-1.3 -0.7,-1.7 0.1,-0.2 0.1,-0.4 -0.2,-0.5 -0.2,0.3 0,0.8 -0.6,0.9 -0.1,-0.5 0,-1.1 0,-1.6 0.2,-1.8 0.5,-3.3 0.8,-5.1 0.1,-0.6 0.1,-1.2 0.2,-1.8 0.1,-1 0.6,-2.5 -0.1,-3.1 -1.1,-0.4 -0.7,0.7 -0.9,1.2 -0.1,0.3 -0.3,0.2 -0.4,0.4 -0.1,0.5 0,1.2 0,1.8 0,0.4 -0.3,0.6 -0.4,0.8 -0.2,0.6 -0.4,1.2 -0.8,1.6 -0.2,0 -0.5,0.1 -0.7,0.2 0,0.4 0.1,0.7 0,1.1 -0.3,-0.2 -0.3,-0.4 -0.5,-0.5 -0.4,-0.1 -0.5,0.8 -0.7,1.3 0.1,0.1 0.2,0.3 0.2,0.5 0.2,0.2 0.5,0.3 0.7,0.5 0.5,0.6 0.3,1.5 -0.3,1.9 -0.2,-0.1 -0.4,-0.3 -0.6,-0.3 -0.4,-0.1 -0.8,-0.1 -1.2,-0.3 -0.2,-0.1 -0.3,-0.3 -0.5,-0.3 -0.3,-0.1 -0.6,-0.1 -0.8,-0.3 -0.3,0.2 -0.8,-0.1 -1,0.3 1,0.7 2.4,0.5 3.2,1.1 0.5,0.4 0.9,1 1.3,1.6 0.6,1 1.2,2.2 1.4,3.4 -0.1,0.4 0,0.7 0,1.1 0,0.5 0,0.9 0,1.3 -0.1,2.5 -0.7,4.9 -1.1,7.2 -0.1,0.6 -0.1,1.2 -0.2,1.6 0,0.3 -0.2,0.7 -0.3,1.1 -0.1,0.8 -0.1,1.8 -0.1,2.7 0,0.5 0,0.7 0.2,1.1 -0.2,0.5 0,1 0,1.6 0,0.3 -0.1,0.6 -0.2,0.9 -0.2,1.7 -0.1,3.5 -0.1,5 0.6,0.3 1.4,0.1 2.1,0.1 0.8,0 1.6,0.1 2.2,0.2 0,0 0.4,-0.1 0.3,0.2 -0.1,0.2 -0.6,0 -0.5,0.3 -0.7,-0.1 -2.3,-0.4 -2.9,0.1 0.2,0.2 0.4,0 0.6,0 1.4,0 2.6,0.4 4.1,0.3 0.4,0 0.7,-0.1 1.1,-0.1 1,0.1 1.9,0.3 2.9,0.4 1,0 1.6,0.2 2,-0.1 z M 48,48.2 c 0,-0.1 0,-0.2 0,-0.3 -0.2,-0.2 -1,-0.4 -1,0 -0.2,-0.3 -0.8,0.2 -1.1,-0.1 0.1,-0.1 0.3,0 0.3,-0.3 -0.1,-0.2 -0.5,-0.1 -0.7,-0.3 0.1,-0.2 0.4,0 0.5,-0.2 0.2,0 0,0 0,-0.2 0.1,-0.1 0.3,-0.1 0.3,-0.3 -0.3,-0.1 -0.7,-0.2 -0.8,0.2 -0.7,0 -1.3,1.1 -2,0.4 -0.3,-0.1 -0.7,0.2 -1.1,0.1 -0.3,0 -0.6,-0.4 -0.8,-0.1 -0.2,-0.1 -0.3,-0.2 -0.5,-0.3 -0.2,0.2 -0.4,0 -0.6,-0.1 -0.3,-0.1 -0.7,-0.1 -1,-0.2 -0.1,0 -0.1,-0.1 -0.3,-0.1 -0.2,0 -0.3,0.1 -0.5,0 -0.3,0 -0.4,-0.3 -0.8,-0.4 -0.4,-0.1 -1,0 -1.3,-0.1 -0.1,0 -0.1,-0.2 -0.1,-0.2 -0.1,-0.1 -0.4,0 -0.5,-0.2 0,-0.5 -0.1,-1.4 0.3,-2.1 0.2,0.3 -0.1,0.7 0,1 0.2,0.8 1.4,1.1 2.2,1.2 0.3,-0.7 0.2,-1.2 0.3,-1.8 0.4,0.4 0.3,1.3 1.2,1.3 0.3,0.5 0.6,1 1.1,1.2 0.3,-0.3 0.1,-0.8 0.2,-1.2 0.1,-1.1 0.3,-2.2 -0.1,-3 0.2,-1.1 -0.7,-2 -0.5,-3.2 -0.3,-0.1 -0.5,-0.3 -0.6,-0.3 -0.1,-0.5 -0.4,-0.7 -0.6,-1 -0.8,-0.7 -1.4,-1.6 -1.9,-2.5 0,0 -0.1,-0.1 -0.1,-0.2 -0.2,-0.5 -0.2,-1.1 -0.4,-1.6 0,-0.2 -0.2,-0.5 -0.4,-0.6 -0.4,0.4 -0.1,1.1 0,1.5 0,0.2 0,0.3 0,0.5 0,0.6 0.3,1.1 0.3,1.7 0,0.3 -0.2,0.3 -0.3,0.5 -0.1,0.5 0.4,1.1 0.4,1.5 0,0.2 -0.2,0.4 -0.2,0.5 0,0.3 0.3,0.5 0,0.7 -0.5,-0.3 -0.3,-0.9 -0.5,-1.4 -0.5,0 -0.5,-0.5 -0.8,-0.7 -0.2,0.2 -0.1,0.5 -0.1,0.8 0.1,0.8 0.5,1.4 0.9,1.9 0,0.1 -0.1,0.2 -0.2,0.4 0.3,0.5 0.7,1.2 0.7,2 -0.3,-0.1 -0.2,-0.5 -0.4,-0.7 -0.1,0 -0.2,0 -0.3,0 -0.1,0.7 -0.2,1.5 -0.6,2 -0.3,0.4 -1.1,0.1 -1.5,0.5 0,1.1 0.6,2.3 1.9,2.5 0.3,0 0.6,0 0.9,0.1 1.1,0.1 1.9,0.2 3.1,0.4 0.1,0 0.9,0.2 1,0.3 0,0.2 -0.6,0.3 -0.7,0.3 -0.9,0.1 -1.5,-0.5 -2.4,-0.5 -0.4,0 -0.7,0.1 -1,0.1 -0.7,-0.1 -1.2,0 -1.6,0.3 -0.2,-0.1 -0.5,0 -0.9,-0.1 -0.4,-0.2 -0.5,-0.9 -1.1,-0.7 -0.2,0.3 0,0.8 -0.1,1.2 0.2,0.3 0.8,-0.1 1,0 0,0 0,0 0,0 0,0 0,0 -0.1,0 -0.1,0 0,0 0,0 0,0 0,0 0,0 0,0 0,0 0.1,0 0.5,-0.1 1,0 1.4,0 1.1,0.2 2.3,-0.2 3.4,-0.1 0.5,0 1,0.2 1.5,0.3 0.6,0 1.3,-0.1 1.9,-0.1 1.4,0 2.2,0.4 3.4,0.3 0.1,0 0.1,0.1 0.3,0.2 0.4,-0.1 0.8,0 1,0.2 0.5,0 0.6,0.4 1,0.5 0,-0.5 -0.5,-0.6 -0.5,-1.1 0.2,0 0.3,0 0.3,-0.1 0,-0.1 -0.2,-0.1 -0.2,-0.2 -0.1,-0.2 -0.1,0 0.3,0 z m -1.7,-4.7 c 0.5,-0.3 1.4,-0.5 1,-1.3 -0.6,0.2 -1.3,0.6 -2,0.9 0,0.3 0,0.7 0.4,0.8 0.1,0 0.3,-0.2 0.6,-0.4 z m 0.4,2.4 c 0.6,0 0.6,-1.4 0.3,-1.9 -0.4,0 -0.8,0.3 -1.1,0.5 0,0.5 0.4,1.4 0.8,1.4 z m -0.3,46.9 c -0.2,-0.1 -0.4,0 -0.5,0.2 0,0.1 0.1,0.1 0.1,0.2 0.3,0 0.4,-0.1 0.4,-0.4 z M 45,94 c 0.5,0.1 1.5,0.4 1.7,-0.2 -1.1,0 -1.9,-0.2 -2.6,-0.1 0,0.3 0.5,0.2 0.9,0.3 z M 44.5,93.3 C 44.6,92.6 44,92.1 43.4,92.2 43,92 42.4,92 41.9,92 40.4,91.9 39.3,91.9 38.1,91.7 37,91.6 35.8,91.3 34.8,90.8 c -0.3,0.2 -0.3,0.5 -0.6,0.5 -0.9,0 -0.3,-1.9 0.1,-2.2 0.2,0 0.1,0.4 0.3,0.3 0.1,-0.4 0.3,-0.7 0.6,-0.9 -0.4,-0.6 -0.2,-1.2 -0.1,-2.1 0.2,-2.2 0.5,-4.5 0.9,-7.1 0.1,-1 0.4,-2.2 0.5,-3.2 0.1,-0.5 0.1,-1.1 0.1,-1.6 0.1,-0.5 0.3,-1 0.4,-1.5 0.1,-0.3 0,-0.5 0.1,-0.7 0.1,-0.3 0.2,-0.5 0.3,-0.8 0.1,-0.5 0.2,-1 0.3,-1.5 0.1,-0.4 0.3,-0.8 0.3,-1.2 0,-0.9 0,-1.8 -0.1,-2.6 0,-0.3 0,-0.7 -0.1,-1 -0.1,-0.4 -0.5,-0.9 -0.7,-1.4 -0.3,-0.9 -0.8,-2.2 -1.5,-2.8 -0.2,-0.2 -1,-0.5 -1.1,-0.3 0,0 0,0 0,0.1 0.8,0.8 1.9,1.7 2.4,3.1 0,0.1 0.1,0.3 0.1,0.3 0.1,1 0.2,2.2 0.1,3.2 0,0 -0.2,0.4 -0.2,0.5 -0.1,0.5 -0.2,0.7 -0.3,1 -0.1,0.4 -0.2,0.7 -0.3,1.1 0.5,0 0.4,-0.6 0.7,-0.8 0,0.2 0.2,0.2 0.3,0.4 -0.2,0.8 -0.3,1.5 -0.5,2.4 -0.1,0.4 -0.2,1 -0.4,1.4 -0.2,0.5 -0.5,0.9 -0.5,1.4 0,0.3 0.1,0.5 0.1,0.7 0,0.6 -0.3,1.5 -0.5,2 -0.2,0.5 -0.7,1.1 -0.8,1.6 -0.1,0.4 0,0.7 -0.2,1.1 -0.2,0.4 -0.5,0.7 -0.7,1.1 -0.3,0.7 -0.2,1.8 -0.3,2.7 0,0.1 -0.1,0.3 -0.1,0.5 0,0.3 0.1,0.5 0,0.8 0,0.4 -0.1,0.8 -0.2,1.2 C 33,86.6 33,87 33,87.3 c -0.1,1.3 -0.4,2.5 -0.3,3.7 0.1,0.7 1.1,1.4 0,1.7 -0.8,-0.8 0,-2.9 -0.4,-4.1 -0.3,0.5 -0.3,1 -0.4,1.5 -0.1,0.5 0,1.1 -0.4,1.4 -0.2,-0.4 0.1,-0.8 0.1,-1.1 0.1,-0.5 0.1,-1.1 0.1,-1.6 0.1,-0.5 0.1,-1.1 0.1,-1.6 0.1,-0.7 0.5,-1.3 0.3,-2 -0.5,0.3 -0.4,1 -0.5,1.5 -0.2,1.3 -0.4,2.5 -0.5,3.5 0,0.6 -0.6,1.5 -0.5,2.1 0.1,0.4 0.5,0.7 0.7,1 1.1,-0.5 2.4,0.3 3.8,-0.1 0,-0.3 -0.3,-0.2 -0.3,-0.4 0.7,-0.2 1.3,-0.1 2.1,-0.1 0.8,0.1 1.8,0 2.7,0.1 0.3,0 0.5,0.2 0.8,0.2 0.2,0 0.4,-0.1 0.5,-0.1 0.1,0 0.2,0.1 0.3,0.1 0.4,0 0.8,-0.1 1.1,0 0.7,0.2 1.5,0.4 2.2,0.3 z M 43.9,46.5 c 0,-0.3 -0.5,-0.8 -0.7,-0.6 -0.3,0.2 -1.1,0.4 -1.1,0.7 0.6,0.2 1.4,0.2 1.8,-0.1 z m -1,-1.1 C 43,44.6 42.2,44 42,43.3 c 0,1 -0.1,1.7 -0.2,2.4 0.4,0 0.8,-0.2 1.1,-0.3 z M 39.4,31.2 c 0.1,-0.1 0.2,-0.1 0.3,-0.3 0,-0.3 -0.5,-0.3 -0.7,-0.2 -0.1,0.4 0.2,0.4 0.4,0.5 z m -0.6,-1.3 c 0.1,-0.1 0.4,0 0.5,-0.2 -0.1,-0.8 -0.7,-0.9 -1.1,-1.4 0,0 -0.1,0 -0.1,0 -0.3,0.6 0.5,0.8 0.6,1.3 -0.1,0 -0.3,0.1 -0.4,0.1 -0.4,-0.3 -0.8,-0.9 -1.2,-1 0,0.3 0,0.5 0,0.8 0.1,0.3 0.4,0.5 0.5,0.7 0,0.1 0,0.2 0,0.3 0.1,0.3 0.5,0.5 0.7,0.6 0.2,-0.1 0.1,-0.5 0.2,-0.6 0.3,0 0.5,-0.1 0.6,-0.3 -0.2,-0.1 -0.3,-0.1 -0.3,-0.3 z M 37.9,27 c -0.1,-0.2 0.1,-0.2 0.1,-0.3 -0.3,0 -0.6,-0.8 -0.8,-0.2 0.2,0.2 0.3,0.5 0.7,0.5 z m -1,3.9 c -0.8,0.2 0.8,1.5 1.2,0.6 -0.2,0 -0.8,-0.7 -1.2,-0.6 z m 0.2,-2.4 c -0.1,0 0,0 0,0 -0.1,-0.1 -0.2,-0.2 -0.2,0 0,0 0,0 0,0.1 0.1,-0.1 0.1,0 0.2,-0.1 z m -0.7,-7 c -0.1,0 -0.1,-0.2 -0.2,-0.2 -0.3,0.3 -0.5,1 -0.5,1.5 -0.4,0.5 -1.2,1.6 -0.4,2 0.3,-0.2 0.2,-0.7 0.1,-1.1 0.2,-0.3 0.4,-0.4 0.5,-0.8 0.5,-0.2 0.5,-0.9 0.5,-1.4 z m -0.7,6.8 c 0.1,0 0.1,-0.1 0.1,-0.2 -0.3,-0.7 -1.7,-0.8 -2.1,-0.1 0.2,0.2 0.3,0.5 0.5,0.6 0.5,0 1,0.1 1.3,0 -0.4,-0.3 -1,-0.3 -1.5,-0.6 0.3,-0.2 0.7,-0.3 1.1,-0.2 0.1,0.2 0.1,0.5 0.3,0.5 0.1,-0.1 -0.2,-0.2 0,-0.3 0.1,0 0.1,0.3 0.3,0.3 z m -1.2,3.4 c 0.1,-0.1 0.5,0.1 0.6,0 -0.2,-0.2 -1,-0.6 -1.1,-0.1 0,0.2 0.1,0.6 0.5,0.7 0.1,-0.2 0.1,-0.5 0,-0.6 z m 0.1,44.7 c 0,-0.3 -0.5,-0.5 -0.4,-0.9 -0.5,-0.4 -1.4,-0.3 -1.8,0 0.3,0.8 0.8,1.5 0.6,2.4 -0.1,0.5 -0.3,0.8 -0.3,1.2 0,0.3 0.1,0.6 0,0.9 0,0.4 -0.3,0.8 -0.1,1.3 0.3,0 0.3,-0.5 0.3,-0.6 0.2,-1 0.4,-1.8 0.5,-2.9 0.4,-0.1 1.2,-1 1.2,-1.4 z m -0.9,2.7 c 0.5,0.1 0.5,-0.7 0.1,-0.7 -0.2,0.2 -0.1,0.4 -0.1,0.7 z M 33.1,29.3 c -0.2,0.6 0.5,1.2 0.8,1.1 -0.2,-0.4 -0.4,-0.7 -0.5,-1.1 -0.1,0 -0.2,0 -0.3,0 z m 1,3.1 c -0.1,-0.6 -0.2,-1.1 -0.4,-1.5 -0.1,0 -0.1,0 -0.2,0 0,0.1 0,0.1 0,0.1 0,0.6 0.1,1.4 0.6,1.4 z M 33,25.1 C 33.2,24.6 32.9,24 32.6,23.3 32.4,22.9 32.2,22.4 32.1,22.1 31.8,21.6 31.2,21 31,21.8 c -0.2,0.8 -0.4,2.1 0.3,2.4 0.1,-0.5 0.1,-1 0.5,-1.3 0.4,0.2 0.6,0.7 0.4,1.2 0.3,0.2 0.4,0.8 0.8,1 z m 0.2,49 C 33,73.8 32.5,74.1 32.1,74 32,74 32,73.7 31.9,73.6 c -0.3,-0.4 -1.2,-0.5 -1.5,-0.1 0.2,0.4 0.5,0.4 0.8,0.7 0.3,0.3 0.4,0.9 1,1 0.4,-0.4 0.8,-0.6 1,-1.1 z M 32.2,47 c 0.4,-0.2 0.1,-1 -0.1,-1.4 0,0 -0.1,0 -0.1,0 -0.2,0.5 0.1,1.1 0.2,1.4 z m -0.6,37 c 0.3,-2.3 1,-4.3 0.5,-6.6 -0.1,-0.5 -0.4,-0.9 -0.3,-1.3 -0.3,-0.9 -1.2,-0.6 -1.6,0 -0.5,1.7 -1.1,3.6 -1.2,5.2 -0.2,3.2 -0.7,6.1 -1.3,8.9 1.1,0.1 2,-0.1 3,-0.2 0.3,-0.4 0.2,-0.9 0.3,-1.4 0.3,-1.9 0.4,-3.1 0.6,-4.6 z m 0.7,-57.1 c -0.1,-0.3 -0.4,-0.6 -0.6,-0.6 -0.2,0.6 -0.3,1.2 0,1.6 0.2,-0.3 0.2,-0.8 0.6,-1 z m -3.4,65.6 c 0.9,-0.1 1.8,0 1.6,-1.3 -0.7,-0.3 -1.7,0.1 -2.7,0 -0.2,0.3 -0.6,0.2 -0.8,0.4 -0.2,0.1 -0.2,0.3 -0.3,0.5 -0.1,0.2 -0.5,0.3 -0.4,0.6 0.9,0 2.2,-0.4 2.6,-0.2 z m 1.3,-20.1 c 0.1,-0.1 0,-0.2 0,-0.3 -0.3,-0.1 -0.7,-0.2 -1,0 0.3,0.1 0.5,0.4 1,0.3 z"
   id="path248"
   style="fill:#000080" />
			</g>
			<g
   id="g252"
   style="fill:#000080">
			</g>
		</g>
	</g>
	<polygon
   class="st1"
   points="83.3,95.6 79.4,95.5 79.9,94.7 83.8,94.9 "
   id="polygon257"
   style="fill:#000080" />
	<polygon
   class="st1"
   points="82.6,96.6 78.5,96.8 79.1,96 83,96.1 "
   id="polygon259"
   style="fill:#000080" />
</g>
</svg>
