<?xml version="1.0" encoding="UTF-8" standalone="no"?>
<!-- Created with Inkscape (http://www.inkscape.org/) -->

<svg
   version="1.1"
   viewBox="0 0 13 13"
   id="svg8"
   sodipodi:docname="setting.svg"
   width="13"
   height="13"
   inkscape:version="1.1 (c68e22c387, 2021-05-23)"
   xmlns:inkscape="http://www.inkscape.org/namespaces/inkscape"
   xmlns:sodipodi="http://sodipodi.sourceforge.net/DTD/sodipodi-0.dtd"
   xmlns="http://www.w3.org/2000/svg"
   xmlns:svg="http://www.w3.org/2000/svg"
   xmlns:rdf="http://www.w3.org/1999/02/22-rdf-syntax-ns#"
   xmlns:cc="http://creativecommons.org/ns#"
   xmlns:dc="http://purl.org/dc/elements/1.1/">
  <defs
     id="defs12" />
  <sodipodi:namedview
     id="namedview10"
     pagecolor="#000000"
     bordercolor="#666666"
     borderopacity="1.0"
     inkscape:pageshadow="2"
     inkscape:pageopacity="0.0"
     inkscape:pagecheckerboard="0"
     showgrid="false"
     inkscape:zoom="41.6"
     inkscape:cx="10"
     inkscape:cy="10.012019"
     inkscape:window-width="1920"
     inkscape:window-height="1017"
     inkscape:window-x="1912"
     inkscape:window-y="32"
     inkscape:window-maximized="1"
     inkscape:current-layer="g6" />
  <metadata
     id="metadata2">
    <rdf:RDF>
      <cc:Work
         rdf:about="">
        <dc:format>image/svg+xml</dc:format>
        <dc:type
           rdf:resource="http://purl.org/dc/dcmitype/StillImage" />
      </cc:Work>
    </rdf:RDF>
  </metadata>
  <g
     transform="matrix(0.63569468,0,0,0.63302922,-386.08746,-439.50693)"
     id="g6">
    <path
       stroke-linejoin="bevel"
       style="color:#000000;enable-background:accumulate"
       d="m 617.64,695.59 c -0.46627,0 -0.93351,0.0595 -1.3807,0.12784 -0.0711,1.1464 -0.25115,2.2654 -1.2017,2.6591 -0.95268,0.39462 -1.8476,-0.28586 -2.7102,-1.0483 -0.7542,0.55049 -1.4432,1.215 -1.9943,1.9688 0.76546,0.86506 1.4698,1.7545 1.0739,2.7102 -0.25982,0.62727 -0.84007,0.91856 -1.53417,1.0646 -0.36229,0.0762 -0.75559,0.11289 -1.15053,0.1371 -0.07,0.45231 -0.10227,0.90878 -0.10227,1.3807 0,0.47795 0.0306,0.94843 0.10227,1.4062 1.1516,0.0705 2.2892,0.19589 2.6847,1.1506 0.3959,0.95577 -0.3084,1.8963 -1.0739,2.7614 0.54837,0.74809 1.2455,1.3957 1.9943,1.9432 0.85987,-0.75912 1.7609,-1.416 2.7102,-1.0227 0.55834,0.23126 0.85048,0.70765 1.01094,1.2937 0.1139,0.41602 0.16145,0.8873 0.19076,1.3654 0.44717,0.0684 0.91441,0.10227 1.3807,0.10227 0.46628,0 0.90795,-0.034 1.3551,-0.10227 0.0705,-1.1516 0.24703,-2.2637 1.2017,-2.6591 0.94933,-0.39323 1.8504,0.2636 2.7102,1.0227 0.74877,-0.54748 1.4459,-1.1951 1.9943,-1.9432 -0.76545,-0.86507 -1.4698,-1.8056 -1.0739,-2.7614 0.10088,-0.24355 0.25173,-0.43313 0.43961,-0.58159 0.54856,-0.43347 1.41278,-0.51642 2.27059,-0.56901 0.0717,-0.45782 0.10227,-0.9283 0.10227,-1.4062 0,-0.4719 -0.0324,-0.92837 -0.10227,-1.3807 -1.1516,-0.0705 -2.3148,-0.24703 -2.7102,-1.2017 -0.33545,-0.80986 0.11902,-1.5721 0.7313,-2.3122 0.11031,-0.13333 0.22574,-0.26595 0.3426,-0.398 -0.5511,-0.75374 -1.2401,-1.4183 -1.9943,-1.9688 -0.46608,0.41197 -0.94164,0.80001 -1.43063,1.00745 -0.41599,0.17646 -0.8417,0.22223 -1.27957,0.0408 -0.95056,-0.39373 -1.1306,-1.5127 -1.2017,-2.6591 -0.44716,-0.0684 -0.88883,-0.12784 -1.3551,-0.12784 z m 0,6.0597 c 1.6261,0 2.9403,1.3142 2.9403,2.9403 0,1.6261 -1.3142,2.9403 -2.9403,2.9403 -1.6261,0 -2.9659,-1.3142 -2.9659,-2.9403 0,-1.6261 1.3398,-2.9403 2.9659,-2.9403 z"
       stroke="#FFFFFF"
       stroke-linecap="square"
       stroke-miterlimit="4"
       stroke-dasharray="none"
       stroke-width="1"
       fill="#FFFFFF"
       id="path4"
       sodipodi:nodetypes="scccccscscccccscsccccsscsccsccsccssssss" />
  </g>
</svg>

